<svg id="Layer_1" data-name="Layer 1" xmlns="http://www.w3.org/2000/svg" width="3.11in" height="3.44in" viewBox="0 0 224.17 247.67"><title>Glassicon</title><circle cx="115.77" cy="67.51" r="27.95" fill="none" stroke="#888b8d" stroke-miterlimit="10" stroke-width="6"/><circle cx="199.18" cy="54.28" r="21.98" fill="none" stroke="#888b8d" stroke-miterlimit="10" stroke-width="6"/><circle cx="88.74" cy="24.86" r="21.86" fill="none" stroke="#888b8d" stroke-miterlimit="10" stroke-width="6"/><circle cx="159.64" cy="61.42" r="16.37" fill="none" stroke="#888b8d" stroke-miterlimit="10" stroke-width="6"/><circle cx="63.28" cy="62.63" r="22.92" fill="none" stroke="#888b8d" stroke-miterlimit="10" stroke-width="6"/><circle cx="80.38" cy="117.4" r="30.13" fill="none" stroke="#888b8d" stroke-miterlimit="10" stroke-width="6"/><circle cx="177.79" cy="95.78" r="20.17" fill="none" stroke="#888b8d" stroke-miterlimit="10" stroke-width="6"/><circle cx="171.86" cy="136.35" r="18.85" fill="none" stroke="#888b8d" stroke-miterlimit="10" stroke-width="6"/><circle cx="115.77" cy="159.36" r="23.85" fill="none" stroke="#888b8d" stroke-miterlimit="10" stroke-width="6"/><circle cx="72.37" cy="165.1" r="16.37" fill="none" stroke="#888b8d" stroke-miterlimit="10" stroke-width="6"/><circle cx="159.64" cy="178.85" r="21.86" fill="none" stroke="#888b8d" stroke-miterlimit="10" stroke-width="6"/><circle cx="33.89" cy="95.45" r="16.37" fill="none" stroke="#888b8d" stroke-miterlimit="10" stroke-width="6"/><circle cx="30.96" cy="135.5" r="21.86" fill="none" stroke="#888b8d" stroke-miterlimit="10" stroke-width="6"/><circle cx="20.29" cy="61.42" r="16.37" fill="none" stroke="#960c22" stroke-miterlimit="10" stroke-width="6"/><circle cx="30.96" cy="187.15" r="27.96" fill="none" stroke="#888b8d" stroke-miterlimit="10" stroke-width="6"/><circle cx="116.49" cy="211.52" r="27.96" fill="none" stroke="#888b8d" stroke-miterlimit="10" stroke-width="6"/><circle cx="198.68" cy="164.52" r="16.37" fill="none" stroke="#888b8d" stroke-miterlimit="10" stroke-width="6"/><circle cx="166.44" cy="222.69" r="21.98" fill="none" stroke="#888b8d" stroke-miterlimit="10" stroke-width="6"/><circle cx="135.72" cy="114.8" r="20.24" fill="none" stroke="#960c22" stroke-miterlimit="10" stroke-width="6"/><circle cx="73.59" cy="198.97" r="13.32" fill="none" stroke="#960c22" stroke-miterlimit="10" stroke-width="6"/></svg>