<svg id="Layer_1" data-name="Layer 1" xmlns="http://www.w3.org/2000/svg" width="6.18in" height="6.93in" viewBox="0 0 445.13 498.6"><title>Molecule</title><line x1="391.75" y1="402.9" x2="391.45" y2="364.1" fill="none" stroke="#888b8d" stroke-miterlimit="10" stroke-width="6"/><circle cx="73.94" cy="73.94" r="59.96" fill="none" stroke="#888b8d" stroke-miterlimit="10" stroke-width="6"/><circle cx="220.34" cy="247.35" r="86.43" fill="none" stroke="#888b8d" stroke-miterlimit="10" stroke-width="6"/><circle cx="84.6" cy="407.75" r="53.3" fill="none" stroke="#888b8d" stroke-miterlimit="10" stroke-width="6"/><circle cx="391.45" cy="313.42" r="50.68" fill="none" stroke="#888b8d" stroke-miterlimit="10" stroke-width="6"/><circle cx="391.45" cy="440.05" r="38.12" fill="none" stroke="#888b8d" stroke-miterlimit="10" stroke-width="6"/><line x1="112.8" y1="123.75" x2="161.87" y2="181.59" fill="none" stroke="#888b8d" stroke-miterlimit="10" stroke-width="6"/><line x1="168.38" y1="316.43" x2="117.66" y2="365.95" fill="none" stroke="#888b8d" stroke-miterlimit="10" stroke-width="6"/><line x1="302.04" y1="272.93" x2="347" y2="293.2" fill="none" stroke="#888b8d" stroke-miterlimit="10" stroke-width="6"/><line x1="268.98" y1="175.9" x2="324.52" y2="115.62" fill="none" stroke="#888b8d" stroke-miterlimit="10" stroke-width="6"/><path d="M324.58,459.26l31.33-9.2" fill="none" stroke="#888b8d" stroke-miterlimit="10" stroke-width="6"/><path d="M285.91,248.19c4.38-28.61-14.07-55.13-41.25-59.29" fill="none" stroke="#960c22" stroke-linecap="round" stroke-miterlimit="10" stroke-width="6"/><circle cx="296.75" cy="467.83" r="27.77" fill="none" stroke="#960c22" stroke-miterlimit="10" stroke-width="6"/><circle cx="73.94" cy="73.94" r="72.44" fill="none" stroke="#960c22" stroke-miterlimit="10" stroke-width="3"/><circle cx="50.2" cy="421.83" r="7.24" fill="#961b24" stroke="#960c22" stroke-miterlimit="10" stroke-width="3"/><circle cx="353.33" cy="73.94" r="50.68" fill="none" stroke="#960c22" stroke-miterlimit="10" stroke-width="3"/></svg>