<svg id="Layer_1" data-name="Layer 1" xmlns="http://www.w3.org/2000/svg" viewBox="0 0 342.16 274.97"><defs><style>.cls-1,.cls-10,.cls-11,.cls-2,.cls-3,.cls-4,.cls-5,.cls-6,.cls-7,.cls-8,.cls-9{fill:none;}.cls-1,.cls-11,.cls-2,.cls-3,.cls-4,.cls-5,.cls-6,.cls-7,.cls-8{stroke:#888b8d;}.cls-1,.cls-2,.cls-3,.cls-4,.cls-5,.cls-6,.cls-7{stroke-linecap:round;stroke-linejoin:round;}.cls-1,.cls-2,.cls-3,.cls-4,.cls-5,.cls-6,.cls-7,.cls-8,.cls-9{stroke-width:6px;}.cls-2{stroke-dasharray:0 9.88;}.cls-3{stroke-dasharray:0 9.89;}.cls-4{stroke-dasharray:0 10.16;}.cls-5{stroke-dasharray:0 9.93;}.cls-6{stroke-dasharray:0 10.04;}.cls-7{stroke-dasharray:0 10.07;}.cls-10,.cls-11,.cls-8,.cls-9{stroke-miterlimit:10;}.cls-10,.cls-9{stroke:#960c22;}.cls-10,.cls-11{stroke-width:7px;}</style></defs><title>Polymericon</title><line class="cls-1" x1="11.24" y1="41.31" x2="11.24" y2="41.31"/><path class="cls-2" d="M16.23,49.83C30.32,69.19,57.44,77.6,82,76.08c27.9-1.73,54.06-13.34,80.79-21.52a338.72,338.72,0,0,1,171.55-6.73"/><line class="cls-1" x1="339.16" y1="48.94" x2="339.16" y2="48.94"/><line class="cls-1" x1="103.07" y1="19.23" x2="103.07" y2="19.23"/><path class="cls-3" d="M96.42,26.55a123.31,123.31,0,0,0-28.48,75.66c-.62,29.16,9.18,57.48,12.51,86.45C83.6,216,79.29,247,59.39,265.31"/><line class="cls-1" x1="55.61" y1="268.49" x2="55.61" y2="268.49"/><line class="cls-1" x1="271.12" y1="3" x2="271.12" y2="3"/><path class="cls-4" d="M263.21,9.36C244,27.61,237,57.16,238.75,84.17c2,30.44,12.79,59.52,19,89.39,5.84,28.2,7,59.23-6.4,84.41"/><line class="cls-1" x1="248.79" y1="262.38" x2="248.79" y2="262.38"/><line class="cls-1" x1="9.68" y1="199.3" x2="9.68" y2="199.3"/><path class="cls-5" d="M18,204.65c34.3,19.57,78.12,17.25,117.3,8.72,42.44-9.23,84.38-24.74,127.79-23.08a164.47,164.47,0,0,1,69.32,18.38"/><line class="cls-1" x1="336.83" y1="211.04" x2="336.83" y2="211.04"/><line class="cls-1" x1="3" y1="127.37" x2="3" y2="127.37"/><path class="cls-6" d="M10.65,133.87c27.23,20.36,65.6,22.58,99.5,15.78,37.22-7.46,72.06-24,109.05-32.51,35.36-8.11,75.53-7.61,104.7,13.38"/><line class="cls-1" x1="327.89" y1="133.57" x2="327.89" y2="133.57"/><line class="cls-1" x1="183.3" y1="15.75" x2="183.3" y2="15.75"/><path class="cls-7" d="M177.75,24.15C157.34,58.3,156.13,101.54,160,141.63c4.06,41.78,12.69,84,6.64,125.37"/><line class="cls-1" x1="165.87" y1="271.97" x2="165.87" y2="271.97"/><circle class="cls-8" cx="103.07" cy="119.07" r="24.79"/><circle class="cls-9" cx="139.56" cy="82.17" r="15.44"/><circle class="cls-8" cx="210.67" cy="157" r="31.4"/><circle class="cls-9" cx="184.58" cy="103.67" r="9.38"/><circle class="cls-9" cx="134.15" cy="189.85" r="12.86"/><circle class="cls-10" cx="212.36" cy="79.82" r="2.34"/><circle class="cls-10" cx="95.94" cy="202.7" r="2.34"/><circle class="cls-11" cx="186.92" cy="76.25" r="2.34"/><circle class="cls-11" cx="175.2" cy="189.85" r="2.34"/><circle class="cls-11" cx="134.15" cy="157" r="2.34"/></svg>