<svg id="Layer_1" data-name="Layer 1" xmlns="http://www.w3.org/2000/svg" width="1380" height="750" viewBox="0 0 1380 750"><title>Voronoi_backsplash</title><path d="M1380,622.5v3.75c-27-4.08-54-8.41-81.19-12.14-19.42-2.66-29.14,2.54-25,13,5.91,14.91,12.39,29.76,18.75,44.62,1.29,3,2,6.57,7.89,7.94,26.77,6.25,50.92,15.64,79.53,19.67V705c-24.82-6.39-49.53-12.91-74.47-19.15-27.42-6.86-59.72-5.5-81.38,1.15-31.74,9.74-55.72,26.79-51.73,50,.74,4.32.42,8.69.58,13h-3.45c-.7-13.33-16.53-19.74-36.62-25-21.6-5.68-42.06-12.64-63.28-18.76-17-4.9-29.45-1-30.78,9.36-1.47,11.47-2.59,23-3.86,34.43h-6.9c4.23-11.71,3.36-23.56,3-35.37-.31-10.68-18.64-10.62-30.63-13.54a20.62,20.62,0,0,0-21.36,6.69C971,717,963,726.35,954.66,735.56c-4.27,4.71-5.49,9.43-2.46,14.44h-6.9c-11.81-17.25-27.27-31.31-66.6-33.58-36.15-2.09-57.9,5.73-61.18,25.45-.46,2.74-2.18,5.42-3.32,8.13h-3.45c-.1-3.73-.27-7.47-.28-11.2,0-14.67-11.66-22.8-37.55-25.64-29.75-3.26-59.69-6-89.35-9.48-12.67-1.48-17.69.54-19,7.46-2.44,13-6,25.91-9.08,38.85h-6.9c3.29-14.16,6.67-28.3,9.83-42.47,1.39-6.23-4.14-9.92-15-11.78-14.73-2.53-29.23-5.45-44-7.92-13.79-2.31-67.34,7.55-75.61,13.73a12,12,0,0,0-3,3.32Q507,727.43,493.35,750H483c-20-12.38-39.82-24.88-60.15-37.12s-57.73-13.65-81.49-3.1c-8.68,3.85-19.51,6.68-20.14,14.18-.72,8.69-2.51,17.36-3.83,26h-6.9c1.08-8.06,2.82-16.11,3.09-24.17.39-11.44-24.36-24.57-45.51-24.2-18.28.32-36.54,1.1-54.78,1.92-13.23.59-18.4,4.37-17.5,11.92,1.37,11.47.66,23,.84,34.52H193.2c-5.83-10.39-2.86-21.1-3.86-31.66-.32-3.4.12-6.78-5.89-9.28-31.06-12.94-84.15-2-92.11,19-2.77,7.32-5.69,14.63-8.54,21.95H75.9c3-7.56,6.47-15.07,9-22.68,1.39-4.18,4.86-8.9-.23-12.69C63,698.54,44.44,680,0,680.63v-3.75c11.78,1.25,23.58,2.44,35.32,3.78,5.7.65,11.19,1.12,16.7-.46q28.85-8.25,57.78-16.41c4.68-1.33,8.58-2.75,8.3-6.29C117,643.21,80,630,55.1,635c-18.18,3.65-35.42,8.83-55.1,10v-3.75c20.24-2.36,39-7,58.06-11.19,14.48-3.15,18.83-33.59,6.12-38.56a93.63,93.63,0,0,0-9-2.67Q27.59,581.27,0,573.75V570c18.42,2.84,35.26,7.86,51.18,13.23,19.42,6.56,37.33,5.93,56.89,1.26,14.64-3.49,31.52-19.07,28.66-27.62-2.06-6.16-7.87-10.21-20.23-10.83Q58.24,543.09,0,540v-3.75q58.06,3.16,116.11,6.36c6.43.36,12.23.87,17-2.51,18.28-13,11.1-31-15.15-39.37-11.44-3.63-20.51-4.3-32.83-.12C57.47,510,28.46,518.19,0,526.88q0-1.87,0-3.75c21.28-6.78,42.45-13.65,63.85-20.31C98.36,492.08,99.71,490,84.72,470c-2.88-3.85-7.28-6-15-6.64-23.27-1.84-46.48-3.9-69.72-5.87q0-1.88,0-3.75,33.08,2.77,66.17,5.53c25.17,2.07,45-8.43,39.58-22.11C101.27,425.78,83.29,418.7,70.6,410c-6.89-4.71-18.19-2.65-27.66-2.84-14.3-.29-28.62-.23-42.93-.32v-3.75c16-.36,31.89.55,47.84,1.4,38,2,46.71-13,53.6-32.29,3.38-9.43-23.68-23.37-48.35-21.61-17.39,1.24-35.37.09-53.08,0v-3.75c18.86,0,37.74-.64,56.5,1.19,7.35.72,15.71,1.13,20.48-2.8C88.64,335.67,100.05,326,110.53,316c4.6-4.38,1.94-9.36-3.9-13.07-6.11-3.89-13.57-1.5-20.59-.19q-43,8.06-86,16,0-1.88,0-3.75c25.36-4.93,50.77-9.78,76-14.85,8.11-1.63,21.39-2,18.73-8.61-3.32-8.29.67-19.67-18.61-23.4C51.42,263.36,26.2,259,0,256.88v-5.62c14.8,2.45,30.46,3.93,44.23,7.53,33.33,8.73,58,2.95,78.85-11.79,1-.74,2.47-1.3,3.6-2,15.54-9.65,7.32-23.78-15.49-26.36Q55.63,212.35,0,206.25q0-1.87,0-3.75,57.4,6.3,114.81,12.56c7.14.77,15.12,2.36,21-1.45,12.11-7.84,25.85-15.32,18.58-27.29-3-5-3.66-10.42-6-15.56-4.87-10.83-32.9-19.35-52.16-15.87Q48.07,163.6,0,172.5v-3.75l94.35-17.52c7.17-1.33,14.52-2.63,15.19-7.68,1.94-14.65,6.13-29.81-27.14-36.84a22.67,22.67,0,0,1-5.54-2.19c-11.85-6-25-7.78-41.16-5.58C24.18,100.5,12.22,102,0,101.25V99.38c39.28-1.4,68.5-9.5,74.55-33.05a5.19,5.19,0,0,1,1.13-1.75c5.15-6.25,1.38-9.79-10.62-11.78C43.24,49.19,21.67,45.12,0,41.25V37.5q35.25,6.17,70.49,12.36c8.08,1.43,14.28,2,15.57-4.39C89.12,30.29,93,15.15,96.6,0h6.9C101.13,10.51,99,21,96.35,31.53,91,52.95,90.93,52.94,129,57.23c23.91,2.69,43.35-9.21,35.46-22-7.3-11.82-15.33-23.5-23-35.24h6.9c5.06,7.25,10.37,14.45,15.12,21.75C177,42.63,176.94,42.49,218.54,41.15c10.46-.34,15.69-2.55,17.15-8.06C238.63,22,241.85,11,245,0h6.9c-3.19,11.34-7,22.65-9.42,34-3,14.39,23.41,25.53,45.77,18.76C307.6,46.94,325,38.66,338.05,29c9-6.67-1.52-15.56-2.6-23.49-.25-1.85-.53-3.71-.8-5.56h6.9c1.88,7.06,3.61,14.12,5.66,21.17,2.55,8.76,13.41,13.54,28,15.78,23.84,3.67,44.5,2.44,64.39-7.87,17-8.81,14.26-18.84,15.8-29.08h6.9c-.7,4.94-1.13,9.89-2.19,14.8-1,4.49-.64,8.61,5.45,12.17,12,7,23.6,14.33,35.91,21.23,13,7.31,16.15,7.25,25.09-1.45C542.42,31.31,557.37,15.6,572.7,0h6.9c-8.31,13.75-24,25.51-35.59,38.37C527.88,56.23,527.12,56,554.58,69.7c.85.42,1.69.85,2.5,1.29,10.81,5.83,22.92,2.32,34.06.87,10.15-1.32,8.53-6.72,8.59-11,.29-20.28.4-40.57.57-60.85h3.45c.19,21.46.14,42.93.67,64.39.22,8.72,11.68,12.09,25.46,7.66,7.85-2.53,14.7-6,22.63-8.44,11-3.38,12.06-7.5,9.06-14C653.89,33.07,641.66,17.14,638.25,0h6.9c5.22,16.66,16.47,32.48,23.26,48.9C672,57.65,683,59.5,696.35,59.57c21.11.11,50.1-17.49,48-28.89-1.85-10.24-4-20.46-6.09-30.68h6.9c2,10.49,3.24,21,6,31.44,4,15.05,30.19,22.47,54,14.78,55.72-18,52.41-7.41,53.84-46.22H866c-.77,4-1.41,8-2.33,12-2.7,11.84.75,22.27,15.38,32.17,16,10.8,38.73,9.65,59,12.23,14.15,1.8,18-7.39,25.47-12,6.4-3.93,16.23-7.45,14.37-14.11Q973.62,15.17,969.45,0h6.9q-3.37,39.6,68.1,47.5a8,8,0,0,1,1.56.39c9.92,3.18,15.44,1.21,19.65-4.24C1076.94,29,1088.88,14.54,1100.55,0h6.9c-11.71,15.25-23.32,30.53-35.17,45.76-9.81,12.6-2.22,20.82,23,22.23,24.49,1.36,49.36.73,73.86,2.07,13.46.74,16.42-1.63,17.95-8.33,4.69-20.56,1.28-41.17,3.14-61.73h6.9c-1.67,21.8-4.35,43.6-2.95,65.44.68,10.6,8.8,13.94,27.7,11.67q79.06-9.46,158.09-19v3.75q-79,9.49-158.06,19c-18.11,2.18-20.28,4.78-11.31,13.38,6.23,6,12.59,11.9,19,17.81,17.31,16,66,24.61,97.6,17.44,17.46-4,35.18-7.59,52.78-11.38v3.75c-9.44,2.2-18.53,5.35-28.39,6.44-34.22,3.81-47.57,15.44-51.38,33.67-4.11,19.65,8.45,29.11,45.5,29.14,11.42,0,22.84.08,34.26.12V195c-14.3,0-28.61.37-42.89.06-12-.26-19.16,2.85-24.5,8.23-9.35,9.41-2,26.32,13.61,32.87,16,6.74,33.13,10.88,53.78,9.45v3.75c-11.7.76-24.47-1.62-34.78,3.28-12.09,5.75-24.32,11.43-36,17.43-14.08,7.26-12.38,18.14,3.92,23.57,22,7.34,44.53,14.25,66.83,21.34v7.5c-29.53,6.71-58.86,13.7-88.68,20-11.94,2.52-14.93,6.62-14.36,12.93.86,9.46,16.14,13,25.12,19.16,6.79,4.65,14.94,5.74,25.83,4.23,17.14-2.38,34.71-3.84,52.09-5.7v3.75c-17.45,1.89-35,3.58-52.32,5.72s-30,15-22.12,23.48c25.77,27.81,14.81,26.64,71,27l3.44,0v3.75c-30.61-1-60.2-2.48-86.71,10.32-21.81,10.53-24.38,11.83-4.09,23.77,1.94,1.14,4.2,2.2,5.61,3.51,19.18,17.86,46.84,26.12,85.19,22.4v3.75c-6.87,0-13.94.69-20.56,0-25.58-2.61-41.35,6-58.47,13.91-14.14,6.56-4.84,14.56-6.93,21.82a8.6,8.6,0,0,0,0,2.8c.62,13.43,15,21.35,39.78,21.22,15.39-.08,30.77-1.06,46.15-1.64v3.75c-15.39.7-30.77,1.52-46.18,2-8.61.28-13.74,2.63-16.67,6.78-7,9.88-13.69,19.82-21,29.63-4.19,5.63-1.71,8.48,9.51,10.07C1330.59,614.54,1355.24,618.64,1380,622.5ZM1048.89,106c2.6,8.41,7,17.67,24.19,21.33,18.79,4,38.57,10.49,58-1,19-11.21,39.85-21.54,60-32.2,6.64-3.52,10.83-7.3,6.53-12.46s-10.84-8.4-22.37-8.42c-26.36,0-52.75.27-79-1.72-6.66-.5-15.56-1.27-19.54,2C1064.7,83.31,1050.47,92.64,1048.89,106ZM851.68,591.62c.07-11.09-2.38-20.71-23.7-25.08-9.77-2-78.7,5.6-85.75,9.83-1.52.91-2.41,2.12-3.78,3.12-19.26,14-6.51,42.29,31.33,49.66a27.62,27.62,0,0,0,17.3-1.79c16.59-6.71,33-13.59,50.12-19.86C848.54,603.35,853.93,598.28,851.68,591.62ZM807.84,454c.09,4.23-.62,8,3.49,10.75C825.08,473.88,838,483.57,855,491c7.79,3.42,17.72,3.66,27.72,1.2,20-4.93,36.64-22.84,34.06-36.08-3.53-18.12-32.93-25.32-51.66-37-3.35-2.09-7-.34-10.1,1.41-12.63,7.25-25.31,14.48-38.3,21.54C810.11,445.68,807.09,449.76,807.84,454ZM608.55,143.4c2.31,10.28,3.72,19.91,6.84,29.38,2.63,8,36,16.71,48.69,13.07,13.66-3.91,27.14-8,40.3-12.42,17.59-5.86,21.37-16.3,9.12-25.53-7.69-5.79-17.15-10.9-24.49-16.81-8.61-6.92-19.71-11.44-34.51-8.47-18.21,3.65-33.84,10-45.55,18.76C608.09,142,608.58,143.19,608.55,143.4Zm54,544.07c1.48,2.18-2.72,6.13,4,7.79,5.3,1.32,9.46-1.56,13.59-3,30.11-10.82,60-21.84,90.22-32.56,9.34-3.32,13.06-6.82,9.73-13.17-10-19-37.73-25.79-69.55-16.33-9,2.69-17.81,5.66-26.94,8.25-7.89,2.25-11.87,5.83-12.89,10.38C667.88,661.44,665.37,674.12,662.6,687.47Zm-7.58-477c-2.58-5,.67-12.56-7.17-18.2-16.93-12.17-78.58-8.58-92.66,4.79-12.86,12.21-9.08,24.16,2.16,35.54,5.38,5.44,14.79,9.45,28.44,8.07,6.7-.68,13.68-.66,20.55-.76C632,239.49,655.56,226.1,655,210.43Zm-437.91-84c0-5.24.05-8.35,0-11.47-.24-11.71-30.9-22.26-51.24-17.64-30.91,7-48.4,21.13-48.46,39.08-.06,18.93,24.46,27.41,55.18,19.08,4.61-1.25,9-2.8,13.87-3.71C210.8,147.23,226.86,140.07,217.11,126.45Zm573.27,241.4c-2,6.37,3.62,11.41,14.53,15.67,15.35,6,30.2,12.42,44.49,19.14,12.22,5.75,20.29,3,25.48-3.37,5.79-7.1,9.36-14.72,14.31-22,8.3-12.26-1-22.69-12.43-32.46a38.18,38.18,0,0,0-25.53-8.51C824.87,337.29,789.52,348.51,790.38,367.85Zm-131-167.23c.4,16.35,3.06,18.42,31.34,24.82,11.1,2.51,22,5.28,33.17,7.68,16.13,3.46,42.16-4.88,44.57-14.27,3.81-14.89,4.84-29.23-26.81-36.52-2.52-.58-4.48-1.91-6.6-3-7.87-3.89-17.31-6.38-26.22-2.29-16.2,7.44-44.84,6.55-49.47,21.68A5.49,5.49,0,0,0,659.41,200.63ZM234.1,203.93c5.75.22,10.76,0,15.25-1.74,26.31-10.46,22.89-39.2-3.95-49.41-20.53-7.81-36.29-2.7-53.64,2.28-42.54,12.22-38.71,5.74-29.72,34.6a7.88,7.88,0,0,1,.3.92c.77,4.37,5.65,6.64,13.18,7.41C195.21,200,214.91,202,234.1,203.93Zm610.56-45.62a19.22,19.22,0,0,0-1.88-4.5c-11.71-17.66-47-24.19-76-14.1-7.71,2.69-15.68,5.16-23.33,7.9-23.53,8.44-24.86,18.84-3.77,28.42,34.42,15.63,34.42,15.63,76.26,6.45C838.8,177.48,845.19,172.32,844.66,158.31Zm11.49,421.16c-.44,17.83,26.41,36.56,52.25,36.45,22.46-.1,56.27-21.71,56.48-36.1.17-11.65-27.55-22.09-59.12-22.26C887.89,557.48,856.35,571.41,856.16,579.48ZM138.41,227.25c-3.59,13.06,20,18.72,38.69,26.09,17.41,6.88,49.76,2.36,58.86-8.18a167.68,167.68,0,0,0,15.3-20.83c5.32-8.52-1.38-14.78-17.49-16.63s-32.65-3.43-49.05-4.91C162,200.74,138.94,211.47,138.41,227.25ZM1175.52,161c20.36,3,31.66-3.6,43.55-15,16.94-16.21,10.53-28.61-6.9-42.52-9.31-7.43-16.13-7.57-26.47-2.06-19.23,10.24-38.33,20.55-57.44,30.85-4.31,2.32-6.27,4.93-4.68,8.43C1130.53,156,1142.11,161,1175.52,161ZM376.85,84.73c-35-.8-57.2,15.4-42.6,32.2C343,127,360.79,133.14,379,137.66c9.16,2.27,19.61.24,26.28-4.36,12.07-8.31,24.24-16.63,35.1-25.4,9.78-7.91,1.41-18.36-15.85-20C408.83,86.32,392.77,85.75,376.85,84.73Zm361,322.07c-.78,17,5.69,22.42,34.37,29.16,7.9,1.86,15.58,4,23.36,6,5,1.31,9.68,1.64,14.09-.89q20.74-11.9,41.78-23.64c6-3.36,6.51-6.15-.91-9.25q-28-11.7-55.45-23.79a16.14,16.14,0,0,0-13.84,0c-12.33,5.11-24.88,10.08-37.26,15.15C739.63,401.3,737.1,403.66,737.87,406.79ZM515.21,700.61a15.91,15.91,0,0,0-.39-2.17c-3.75-11.06-32.45-22.58-61.34-24.45-23.62-1.53-24.9,9.41-31.88,17.12a27.23,27.23,0,0,1-2.2,2.53c-6.07,5.33-3.81,10,3.35,14.47,18.15,11.2,36.22,22.43,54.42,33.6,3.74,2.3,9,4.28,11.87.09C498.3,728.06,506.67,714.16,515.21,700.61Zm380.18-69.08c3.53-15.63-15.57-17.17-26.67-22.29-8.32-3.83-16.49-3.24-24.9.3q-23.81,10-48.17,19.64c-8.1,3.18-13.32,6.53-10.56,12.48s6.09,11.28,19.24,12.78a204.68,204.68,0,0,1,24.58,4.21c14.56,3.51,26.13,1.56,40.08-2.45C891.9,649.6,894.48,638.87,895.39,631.52ZM661.45,585.34c-15.84,1.27-22.65,8.1-31.86,12.94-21.76,11.43-17.5,21.61,7.91,30.75,22.74,8.18,42.58,8.71,63.67-.6,4.4-1.94,9.89-3.16,14.9-4.69,7.07-2.16,16.17-4.35,13.2-9.59-4.35-7.69.66-18.44-16.9-22.18C696,588.48,677.87,587.38,661.45,585.34Zm3.31,61.7c.46-3-1.59-5.34-6-7.33-28-12.69-40.82-12.87-69.86-.75-1.82.76-3.57,1.59-5.52,2.24-6.8,2.27-8.88,5.41-6.88,9.6,4,8.46,7.76,17,11.72,25.44,1.5,3.21,4.93,5.61,10.85,6.77,14,2.77,28.1,5.51,42.12,8.3,8,1.6,13.24,1,14.39-4.38C658.45,673.63,661.7,660.34,664.76,647ZM872.35,211.81c0-23-22.94-31-61.74-24.26-29.41,5.13-36.77,14.94-35.72,29.87.37,5.2,2.29,8.37,9.43,11.89,17.31,8.53,36.24,5.18,55.22,3.56C869.49,230.31,872.35,228.49,872.35,211.81Zm194.93-23.5c15.15-1.15,29.64-4.23,44.23-7,16.25-3.08,25.36-14.21,19-22.8-2.34-3.18-6.36-6-8.15-9.27-7.68-13.93-30.69-15.27-50.82-16.87-16.2-1.29-17.49,9.24-25.51,14.46a29.92,29.92,0,0,0-5.35,4.79c-6.21,6.5-1.3,26.73,8,32C1053.55,186.35,1059.73,188,1067.27,188.31Zm-755.34-6.15c-4,0-8,0-12.07,0-20,.13-46.57,17.75-43,28.55,1.67,5,6.68,8.47,15.87,10.1,14.21,2.51,28.2,5.4,42.52,7.7,16.12,2.59,40.75-4.74,46-13.3C373.21,195.74,352.92,182.15,311.94,182.15Zm756.5-113.28c-3.45-6.84-7.14-13.22-20.76-16.2-14.9-3.25-29.34-7.14-44.34-10.24-7.92-1.64-17.81-6.45-24.82-.75-9.93,8.08-30.94,13.22-25.24,25.87,1.75,3.89,5.38,6.74,12.41,8.33,22.24,5,44.39,10.19,66.6,15.26,4.79,1.1,10.2,2.52,14.3-.18A71.39,71.39,0,0,0,1068.44,68.88ZM783.23,371.93c-.65-5.52,1-10.91-10.37-13.24-34.57-7.1-69.32-15.35-98.33,5.76-1.34,1-3.81,1.49-5.1,2.48-1.6,1.21-4.15,3-3.48,4,5.27,7.77,8.42,16.36,24.29,20.48,25.27,6.56,49.62,9.4,71.06-4.13,3.29-2.08,7.91-3.64,12.34-5.06C781.5,379.69,785.19,376.29,783.23,371.93Zm106,176.56c-4.35-13.47-8.84-27.89-13.71-42.27-3.41-10.07-14.72-12.11-29-5.07-10.58,5.23-20.26,11-30.52,16.41-5,2.64-6.76,5.64-5.25,9.3,4,9.71,7.44,19.51,12.1,29.13,4,8.18,16.47,11.16,30.25,11C866.67,566.79,889.14,555,889.22,548.49Zm218.51-89.83c-1.2,12.6,14.81,19.35,26.21,27.26,18.93,13.13,48,12.82,67.48-.43,8.84-6,10.8-12,.32-18.43-10.28-6.27-20.88-12.53-29.27-19.52-11.37-9.48-25.14-8.47-41.79-5.44C1114.44,445,1108,450.9,1107.72,458.66ZM383.35,196.48c9.49-.92,20.15-2.54,31-2.87,20.29-.62,27.76-7.66,34-16.82,5.89-8.71-5.83-12.69-13.28-17.7s-16.45-9.57-25.31-14c-13.55-6.78-30.12-5-37.63,4.24-7,8.55-13.26,17.28-19.08,26.07C347.86,183.14,366.83,196.59,383.35,196.48Zm224.49-24.77c-1.61-7.73-3-15.48-4.89-23.2-2.32-9.6-16.32-14.75-33.4-11.72-16.33,2.9-32.45,6.27-48.11,10.11-13.47,3.3-19.82,14.81-11.44,19.41,11.7,6.41,23.8,12.62,36.05,18.72,9.3,4.63,58.15-3,61.66-9.6C608.33,174.29,607.8,173,607.84,171.72ZM598,75.51c-28.71.12-48,11.85-40.25,25.65,5.14,9.17,12.75,18,20.91,26.57,7.35,7.68,22,9,34.73,4.22,8-3,15.72-6.26,23.78-9.23,7.77-2.86,10-6.4,6.64-11.25C638,103,632,94.58,627,86,622.36,78,611.71,75.71,598,75.51ZM311,179.73c30.6,0,30.59,0,41.89-15.42,3.61-4.92,6.85-9.94,11.05-14.71,5.45-6.18,2.39-10.73-7.39-14.52-4.66-1.81-9.29-3.68-13.49-5.79-6.58-3.3-12.76-3.48-19.81-.35-17.32,7.68-34.89,15.19-52.33,22.79-4.22,1.84-6.62,3.8-5.4,7.2C271.49,175.52,280.4,179.73,311,179.73ZM1376.23,319.35c-18.38-6-33.85-9.78-46.45-15.45-22.35-10-43.37-9.08-67.5-2-24.45,7.18-29.21,21.42-7.54,31.58,7.81,3.66,15.62,9.22,28.41,6.46C1312.89,333.54,1342.42,326.85,1376.23,319.35ZM160.72,87.37c-2.83-4.68-6.4-10.92-10.4-17.09-4.45-6.85-48-15.79-59.47-12a13.92,13.92,0,0,0-6.75,5.19C78.69,71,73.89,78.65,68.63,86.24c-3.46,5-2.2,8.93,6.36,12.21,47.05,18,31.8,17,73.14.87A82.6,82.6,0,0,0,156,95.74C159.54,93.94,161.33,91.7,160.72,87.37ZM938,130.51c1.36-18.11-33.1-31.29-64.42-24.53a17.39,17.39,0,0,0-7.59,3.56c-8.9,8.36-18.17,16.66-25.74,25.38-7,8.09,9.1,19.17,25.31,17.76,15.28-1.33,30.4-3.22,45.6-4.86C934.29,145.31,937,143.55,938,130.51ZM198.09,519.63c-37,0-46.51,3.47-56.88,21-5.71,9.66,2.4,18.38,20.08,21.13,10.46,1.63,21,3.17,31.7,4.26,24.65,2.52,45.48-8.7,42.22-21.9-1.85-7.49-9-13.35-16.25-19.3C214.1,520.82,206.69,519.42,198.09,519.63Zm721,35.16c24.29.11,45.09-8.07,41.17-16.91-7.51-16.95-12.55-35.25-48.63-43.33-9.49-2.12-16.5-1.17-24.25,1s-6.63,6-5.36,9.81c4.11,12.27,8.75,24.49,12,36.83C896.38,551.4,902.52,557.09,919.07,554.79Zm29.3-386.49c0-15.78-8.43-19.61-36.54-16.6L873,155.87c-9.62,1-19.79,1.62-22,8.38-2.34,7.13-6.9,13.41,4.35,20.82,17,11.2,35.67,9.7,57.13,6.9C939.78,188.43,948.37,183.2,948.37,168.3Zm-442-22.13c-10.79-10.87-16.3-23.78-31.41-33.62-10.53-6.86-22.82-5.51-32.94,1.67-8.38,5.95-16,12.23-25,17.91-7.88,5-8.35,8.92,1.06,13.5,10.25,5,20.06,10.32,29.15,15.93,12.94,8,26.52,3.21,39.51.85S502.67,153.21,506.37,146.16Zm-299-101v-.05c-2.3,0-4.6,0-6.9,0-36.79.19-51.32,11.21-39.72,30.12,1.09,1.78,2.17,3.56,3.27,5.33,6.66,10.74,22,16.43,42.53,16,6.12-.13,9.61-1.89,11.89-4.56,8.94-10.48,18.37-20.85,26.3-31.55,5.56-7.51-3.27-14.35-18.42-15.25C220.08,44.88,213.7,45.19,207.38,45.19ZM481.54,108c15.89-3.09,31.73-6.9,48.3-9.19,17.8-2.46,22.42-9.85,26.55-17.69,4-7.5-8-10.16-15.77-14-4.67-2.3-9.57-4.47-14-6.88-6.9-3.75-13.7-4-21.12-.47C490.36,67,475.42,74.23,459.84,81.07,449,85.84,446,90.95,451.49,98.16,457.21,105.67,469.89,105.61,481.54,108Zm534.54,472.84c20.19-.12,39.89-14.14,34.35-23.79-15.82-27.56-15.82-27.57-66.23-18.13-3.24.61-6.6,1.11-9.64,2-18.21,5.05-22.1,15.89-13.18,25.62C973.55,579.82,996.13,578.85,1016.08,580.89ZM1284,516.54a14.2,14.2,0,0,0,3.76-.34c12.36-4.08,24.11-9.23,29.9-16.15,4.41-5.27-8-8.86-13.3-13.05-2.87-2.28-7.08-4.06-10.38-6.19-27.47-17.76-27.45-17.77-65-8-2.06.54-4.45.9-6,1.72-8.25,4.23-14.44,9.56-10.79,15.6C1220.55,504,1256.08,516.85,1284,516.54Zm-294.45-361v-.26c9.18,0,18.37,0,27.55,0,6.87,0,12-1.59,15.59-4.86,6.48-5.89,12.93-11.8,20-17.49,6.09-4.93,1.57-8.75-2.87-12.9-4.63-4.33-11.15-4.65-19.2-3.7-23.56,2.78-47.19,5.37-70.78,8.07-5.74.66-10.68,1.82-13.54,5.06-13.29,15.08-.88,26.13,29.51,26.08Zm-199.29,509c1.71,16.85,3.06,28.32,4,39.8.59,7.48,9.05,12.54,17.3,17.73,2.08,1.31,4.46,1.56,7.65,1.1,22.92-3.26,46.15-27.55,40.52-40.63C854,669.29,839,663.35,815.44,660.32,789.89,657,790,656.25,790.25,664.55Zm458.33,16.28q12.73-.9,25.46-1.8c10.31-.75,13.32-4,11-9.26-5.88-13.3-11.53-26.64-17.46-39.94-1.49-3.34-3.26-7.24-11.81-6.39-10.06,1-20.94,1.84-27.79,6.5-16.72,11.36-34.19,22-14.42,38.51C1223,676.33,1229.54,682.56,1248.59,680.83ZM680,62.23c-8.44-.22-45.36,11.06-47.86,14.95a5.05,5.05,0,0,0,.38,5.41c6.58,10,13,20.05,20.61,29.82,5.42,6.92,21.4,8.08,31.1,2.79,3.65-2,6.44-4.57,10.57-6.15,25.51-9.75,28.35-21.16,13.75-36C701.52,65.84,694.07,62.31,680,62.23ZM250.36,105.5c-25.34-.43-25.94-.13-25.85,13.73,0,5.91-.42,11.86.61,17.73,1.43,8.2,27.73,16.3,39.27,11.78,19.47-7.63,37.89-16.07,56.51-24.32,6.87-3,5.81-7,3.05-11.12s-7.51-6-15.34-6.2C289.19,106.62,269.78,106,250.36,105.5Zm327,298.92c-3.71,14.07,22.34,16.33,39.72,22.58,9.26,3.33,17.55,2.11,23.21-3.22,6.59-6.2,11.76-13,19.82-18.57,15.16-10.47,10.73-20-.86-30-4.3-3.72-8.23-4.63-15.19-2.21-19.32,6.72-38.83,13.27-58.26,19.9C579.4,395.07,576,398.09,577.34,404.41Zm-98.84-193c6.16-.42,13-1.05,19.83-1.32s13.84-.48,20.66-.14c14.4.72,21.35-2.78,26.46-10.09s.74-10.74-9.17-14.77c-8.67-3.52-15.78-8.17-23.55-12.33-14.36-7.68-25.45-8.25-46.26-2.35-9.27,2.63-21.06,17-18.78,22.87C451.3,202.55,465.93,211.36,478.5,211.41ZM185.22,271.33c1-5.83-.51-8.86-5.35-11.62-30.35-17.31-40.55-17.48-71.1-.89-2.84,1.54-5.65,3.11-8.49,4.65-5.28,2.86-7.51,6.28-5.79,10.24q4,9.1,8.41,18.14c2.76,5.58,8.59,7.74,19.22,5.16,13.1-3.17,26.06-6.79,39.78-8.85C180.76,285.33,184.87,278,185.22,271.33ZM749.08,494.74c-2.32,5.39.52,9,6.56,12.51,26.81,15.66,42.66,15.85,71.08.41,21.69-11.79,21.69-11.79,3-24.43-25.21-17-25.07-16.91-60.09-5.78C756.56,481.59,744.52,485.62,749.08,494.74ZM676.75,544c-6.89,0-13.79-.11-20.68,0-9.4.19-14.56,3.59-17.37,7.89-4.57,7,14.52,28,27.59,30,14.38,2.15,29.15,3.51,43.73,5.26,6.18.74,11.38.26,14.86-3,6.81-6.33,11.59-12.5,6.82-20.33C721.62,547.33,713,543.87,676.75,544Zm29.5-206.51c-.67-2.81-1.85-6.82-2.54-10.85-2.28-13.35-22.58-19.16-44-12.32-10.39,3.31-20.34,7.06-30.21,10.83-16.15,6.17-17.38,11.7-5,20.37,33.47,23.44,33.43,23.42,73.81,3C703.66,345.85,707,342.82,706.25,337.52Zm450.07,312.13c-7.63.72-17.54,4.59-23.29,10.48-6.13,6.28-7.27,13.36,1.25,19.54,8.25,6,17.39,11.6,26.3,17.3,16.2,10.37,17,10.33,32.76.15a75.76,75.76,0,0,1,11.91-6.75c11.11-4.66,12.18-10,5.58-16.37-3.07-3-6.15-6.14-7.52-9.43C1198.14,652.15,1181,650,1156.31,649.65Zm64.61-228.92c-11.79,1-25.2,1.39-37.72,3.41-16.83,2.71-20.39,10.67-9.58,17.8q10.4,6.86,20.46,13.86c22,15.26,21.92,15.23,55.21,7.55,7.5-1.73,15.16-3.24,18-8C1271.06,449,1234.39,420.84,1220.93,420.73ZM780.09,126.27c.88-17.81-15.86-29.31-43.81-30.1-10.53-.3-49.1,19-49.66,24.79-.4,4.16,34.67,26.16,41.49,26C737.69,146.83,779.91,130,780.09,126.27ZM280.83,102.83c10.64,0,20.45.4,30.11-.1,12.41-.64,18.56-6.27,12.26-12A397.63,397.63,0,0,0,287.9,62c-8.79-6.33-29.63-6.33-35.18-.38-9.84,10.54-18.58,21.4-27.5,32.19-3.73,4.51-1,7,8.55,7.43C249.74,102,265.6,103.5,280.83,102.83Zm47.5,271.74c-.59,4.35-1,8.72-1.86,13-.66,3.14.51,5.79,6.21,6.91,10.78,2.11,21.55,4.81,32.72,5.64,20.92,1.55,42.42-8,44-18.43,1.4-9-20.4-24.78-36.68-26.62C329.23,350.19,328.35,350.57,328.33,374.56Zm18.93,308.62c10.14-15.35-12.13-22.11-30.91-29.86-9.21-3.8-16-2.11-23.56,2.3-13.75,8-8.3,17.47-9.86,26.57-2.23,13,9.2,21.15,27.52,28,6.94,2.58,11.8,2.29,18.52,0C347.22,703.93,350.91,694.81,347.26,683.18ZM374.64,454c-10.94-.57-18.5,2.3-21.81,8.69-1.86,3.6-4.36,7.09-6.47,10.65-7.95,13.41-4.64,17.88,18.32,25.16,8.42,2.67,16.72,5.44,25.07,8.18,7.65,2.5,15.69,4.5,24.05,1.35s7.35-8.16,5.82-12.8c-2.84-8.59-6.23-17.12-9.38-25.67C405.41,456.43,400.78,454.34,374.64,454Zm428.44,1.54c2-9.83-14.64-9.52-24.12-13.25-26.88-10.57-50.13-7.9-72.33,4.63-10.95,6.18-12.71,13.89-.33,19.17a259.4,259.4,0,0,0,33.3,11.47c12.87,3.51,61.67-12.37,63.46-20.15A8.34,8.34,0,0,0,803.08,455.55Zm103.6-352.42c7.47.27,15.13,1.17,19.42-3.67,6.48-7.29,14.05-14.34,19.58-21.83,6.48-8.78-1.16-16-17.93-18.1-50.42-6.21-37.39-7.38-59.72,15.31-2.43,2.47-4.45,5.06-6.92,7.52-3.71,3.69-2.26,7,.92,10.63C871.48,103.76,890.15,102,906.68,103.13Zm333.81,73.8c7.4-.3,14.8-.64,22.2-.89,24.24-.81,26.35-1.8,31.21-14.89,1.92-5.18,3.81-10.36,5.82-15.53,1.81-4.65,2.17-9.58-9-9.81-18-.36-34-12.39-53.52-2.75a2.59,2.59,0,0,0-.82.81c-6.93,8.18-14.47,16.23-20.57,24.59C1210.83,165.23,1227.33,177.2,1240.49,176.93Zm-739,496.82c-.38,8.91,19.1,21.8,28.13,20,17.07-3.45,38-5,48.8-12.69,8.9-6.34-4.22-15.23-6-23.12A5,5,0,0,0,572,657c-4.94-10.68-19.29-16.91-39-17-6.42,0-11.7,1.32-13.77,4.52C512.7,654.8,506.69,665.19,501.52,673.75ZM956,121.21c25.8-3,53.26-6.17,80.64-9.49,5.9-.72,7.58-3.45,7.95-6.47.45-3.76-1.48-6.74-8.29-8.37-13.64-3.25-27-6.89-40.92-9.73-48.27-9.87-35.35-13.8-61.19,13.36a12,12,0,0,0-2,2.57C928.59,110,942.17,121,956,121.21Zm-462,369.71c-20.16,3.83-42.94,8-63.91,14.39-7.17,2.2-7.5,5.72-2,9.47,10.33,7.05,20.28,14.28,30.14,21.53,7.13,5.25,17,5.89,27.65,5.15,11.16-.78,14.42-5.53,16.64-10.52,4.18-9.37,8.33-18.75,12-28.17C517.6,494.91,511.35,490.92,493.94,490.92ZM1177.36,163.4H1167c-29.55,0-40.4,10.39-29.65,25.27,8.81,12.2,27.77,12.37,45.75,14.72,11.15,1.45,22.61,3.69,31.77-2.28,7.39-4.81,8.86-20.35,4.14-25.78C1209.68,164.6,1194.23,161.42,1177.36,163.4ZM528,388.25c-19.27-.07-37.31,8.83-45.63,22.53-2.6,4.29,10.47,17.08,21.77,20.82,9.37,3.1,19.06,4.11,28.84.2,8.75-3.49,17.5-7,26.59-10.23,11.08-3.93,14.05-9.15,11.52-16.07C566.53,393.06,555.28,388.36,528,388.25ZM813.17,84.87c-13.41,0-34,9.76-35.65,15.71-4,14.63,15.1,29.94,41.22,33.66,8,1.14,12.9.41,16.81-3.72,6.83-7.21,14.6-14.16,21.61-21.32,7.54-7.7.84-17.68-14.57-20.59C832.37,86.68,821.41,85.88,813.17,84.87ZM736,426.21c-1.79-6.32-2.75-10.33-4.09-14.29-2.63-7.75-34.93-18.76-49-16.78a12.67,12.67,0,0,0-7.48,3.58q-13.19,12.53-26.32,25.09c-3.23,3.09-2.56,5.65,2.42,8.29,27.27,14.46,42.8,15,73,2.38C731.12,431.72,737.59,429.22,736,426.21Zm-43.4,32.61c-.14-4.29-2.75-8-9.47-10.44q-19.3-7-38.95-13.64c-11-3.72-18.69-1.65-22.57,4.65-5.08,8.25-9.54,16.62-14.27,24.94-1.85,3.26,0,6,3.31,8.77,8.69,7.18,30.57,12.05,44.67,9.74C667.49,480.84,692.83,464.52,692.64,458.82ZM990.1,627.72c18.32,1.89,27.37-5.88,37.38-12.06,15.73-9.71,2.8-29.35-20.37-31.88-31.58-3.45-31.59-3.45-45.86,12.07-3.85,4.19-7.63,8.4-11.49,12.59-2.82,3.05-3.3,6,1.45,8.62C961.76,622.95,972.42,628.74,990.1,627.72Zm104.12-219.66c.44,10.35,6.85,19.44,18.64,27.52,3.54,2.43,7.11,3.47,13.12,3.08,40.11-2.61,58.07-23.72,33.38-41.3-10.16-7.23-28.35-8.83-44.35-11.12a11.66,11.66,0,0,0-6.94,2.09C1101.61,394.51,1093.87,400.49,1094.23,408.06ZM431.56,195.2c-17.48,2-33.93,3.43-49.89,5.82-11,1.64-18.23,17.55-11.42,22.87,17.63,13.78,34.63,16.65,64,10.79,15.17-3,27.41-14.21,22-22.37C451.63,205.36,446.9,197.52,431.56,195.2ZM795.76,77.63c-.31-14.74-24-31.21-44.46-30.89-9.43.15-39,14.72-38.94,19.19.23,15.81,23.16,29.15,50.19,29.21C775.55,95.16,795.9,84.43,795.76,77.63ZM566.62,342.23c7.4-.74,14.2-1.35,20.93-2.11,23.8-2.7,28.58-8.32,16.78-19.72-7.59-7.34-15.08-14.72-23-22-8.42-7.68-24.18-9-36.64-3.2-24.24,11.2-17.87,37.31,11.05,45C559.28,341.15,563.23,341.62,566.62,342.23ZM376.69,549.58c-.36,7.29,14.66,19.71,26.49,22.27,4.5,1,7.47.07,10.75-1.45,44.18-20.49,45.7-27.78,10.51-51.5-.36-.24-.74-.48-1.06-.73-8.31-6.5-16.25-5.12-24.93,0C383.35,527.08,376.32,537.54,376.69,549.58Zm545-148.19v.39c-11.46,0-23-.25-34.38.08-8.8.25-14.72,3.5-18.42,7.52-4,4.36,2.57,6.92,7.27,9.53,10.42,5.8,21.21,11.4,31.56,17.23,6.08,3.43,12.34,4.06,20,1.66,13.39-4.21,27-8.24,40.38-12.45,5-1.58,9.35-3.3,8.46-7.28-2.3-10.27-15-16.62-34.19-16.68C935.41,401.37,928.53,401.39,921.64,401.39ZM728.94,244.9c2.1-3.92-1.39-6.28-8.1-7.83-14.22-3.29-28.27-6.79-42.55-10-16-3.6-41.5,6.18-41.17,15.66.47,13.72,25.06,24.81,55.66,25.11C716.3,268.07,726.68,261.54,728.94,244.9Zm-263,349c13.24-.65,21-3.45,27.09-8.73,13.2-11.38,11.17-22.15-1-33.21-8.73-8-23.41-9.29-35.12-2.5-9.81,5.69-19.09,11.66-28.34,17.63-16.27,10.49-13.88,17,9.46,22.71C447.37,592.09,457.94,592.79,466,593.93Zm609-25.68c-17.55-.12-41,10-41.81,18.14-1.47,13.83,23.48,28.41,48.28,28.21,17.35-.13,30.64-10.42,31.34-24.24C1113.24,580.66,1092.22,568.36,1074.94,568.25ZM681.14,697l.73,2.74q48,5,96,9.91c7.06.71,11.17-.88,10.57-5.08-1.78-12.42-3.69-24.84-5.36-37.27-.54-4.05-2.63-6.21-10.44-3.39ZM333.34,324.75c.64-5.22-12.64-14-31.75-15.73-39.27-3.57-51.25-5.68-40.93,19.32a19.43,19.43,0,0,1,.66,1.83c5.15,17.21,5.15,17.21,37.24,20,30.76,2.63,30.72,2.63,32.61-14.68C331.48,332.65,332.28,329.88,333.34,324.75Zm449.12,197c-4.12-.09-8.53.16-11.15,1.88-12.42,8.14-25.91,16-36.18,24.85-7.06,6.11,1.49,12.68,7,18.36,3.64,3.77,11,2.32,17.15,1.56,15.1-1.87,30.15-3.9,45.34-5.53,9.33-1,12.54-3.43,10.24-8.53a212.76,212.76,0,0,1-9-22.86C803.47,524.12,794.49,522,782.45,521.78Zm-71.59-196c1.12,17.67,1.43,17.89,30.54,23.15,8.15,1.47,16.51,2.66,24.39,4.48,11.52,2.66,19.76,1.86,28.08-3.94,8.76-6.1,5.73-10.54-1.59-15.68s-13.6-10.78-21-15.9c-8.7-6-30.49-7.82-46-4.78C712.88,315.5,707.66,319.63,710.86,325.77ZM556.4,380.32c0,9.29,11.73,13.29,25.76,8.84,14.32-4.54,28.3-9.4,42.26-14.27,22.09-7.71,22-7.76,6-18.6-5-3.39-9.74-6.93-15.12-10.13-11.13-6.64-46.44-2.65-50.26,6C560.91,361.52,559.11,371.16,556.4,380.32ZM803.53,266.09l.57,0c-1.44-7.09-2.41-14.22-4.44-21.27-2.94-10.19-26.35-16.31-43.05-11.51-17.9,5.15-29.36,19.23-24.08,30,2.37,4.83,8.33,8.41,17,9.68,14.88,2.18,30.06,3.78,45.17,5.46,8.6,1,11.53-1.37,10.21-5.81C804.29,270.42,804,268.25,803.53,266.09ZM1171,714.17c-.28-5.13-40.06-31.75-47.9-32.71a18.42,18.42,0,0,0-5.1,0c-14.71,2.63-29.94,4.68-43.85,8.25-12.17,3.12-12.24,9.11-.61,12.81,26.25,8.36,53.08,16.18,79.7,24.19,7,2.12,12.27,1.35,14.31-3.14C1169,720.2,1170,716.8,1171,714.17ZM209.1,594.83c-1.15-4-2.89-8-3.33-12-1-8.78-8.74-13.7-25.14-14.52-3.94-.2-7.73-1.15-11.67-1.52-9.63-.91-20.65-4.76-27.61,2.15-7.17,7.12-18.09,13.84-7,23.09,31.05,26,13.89,22.34,66,9.94,1-.25,2.06-.54,3-.86C207.79,599.71,209.47,597.54,209.1,594.83ZM575.35,466.38c16.94,2,25.62-2.32,29.23-11.12,2-4.85,5.62-9.5,8.5-14.23,2.37-3.89,5.8-8.28-2.91-10.82-11.69-3.42-22-11.69-36.18-8.33-14.8,3.5-31.68,8.22-38.72,16.25-5.17,5.9,7,12.54,11.08,18.92C551.24,464.78,560.22,468.2,575.35,466.38Zm387.53.7V467c-4,0-8,0-12.07,0-26.46-.08-33.94,3.21-40.17,17.39-1,2.32-1.5,4.56,2.43,5.91,16.18,5.53,30.85,13.75,53.17,8.17,7.2-1.8,15.43-2.42,23.23-3.48,14.58-2,21.56-7.27,19.77-15.12S1001,466.15,983.55,467C976.72,467.37,969.77,467.08,962.88,467.08ZM602.76,243.88c-8.68,1.36-25-3.16-28.43,7.17A196.22,196.22,0,0,0,567,280.71c-1.14,6.91,6,10,18.37,8,11.55-1.83,22.94-4.07,34.07-6.57,14.57-3.27,24.18-14.25,20.42-22.5C633.32,245.2,629.31,243.38,602.76,243.88ZM840.36,84c4.83.09,9.71-.42,12-2.81,8.51-8.81,18.13-17.45,24.22-26.75,4.3-6.57-7.05-11.5-14.36-16s-14.56-.05-21.22,1.91c-12.08,3.56-24,7.27-36,10.93-5.07,1.55-9.55,3.17-9.93,6.94C793.56,73.52,812.55,84.43,840.36,84ZM568,248.78c-.09-7.68-11.88-11.64-25.18-7.88-15.78,4.47-31.21,9.35-46.2,14.55-12,4.16-12.95,10.49-2.24,15.55,12.11,5.72,24.88,11.11,38.1,16.06,12.77,4.78,23.8,2.49,26.85-5.88C563.17,270.49,565.15,259.59,568,248.78ZM277.81,624c-3.49,9.8,7.89,13.83,14.89,18.89,6.52,4.71,15,4.52,22,.27,10.69-6.5,21.19-13.13,30.74-20.13,8-5.87,4.39-14.6-6.93-18.88-6.11-2.31-12.66-4.3-19.22-6.22-19.84-5.8-36.54-1-39.18,11.37C278.92,614.89,278.35,620.49,277.81,624ZM461.5,410.86c8.44.91,12.28-1.31,15.61-4,6-4.93,11.68-10,18.23-14.75,6.13-4.43,5.45-8.12,0-12.7-16.57-13.88-16.27-14-44.62-7.77-8,1.75-16.15,3.29-23.84,5.36-10.62,2.85-19.1,14.38-12.08,18.29C428.08,402.68,440.26,412,461.5,410.86ZM203.24,671.15c.57-9.39-8.78-13.86-31.8-12.25-9.64.67-19.37,1-29,1.56-6.56.4-14.49,1.54-12.47,5.85,4.65,9.91,9.51,20,17.67,29.14,5.07,5.68,19.92,5.33,30.42,7.61,13.3,2.89,19.63-.61,21.12-7.48C200.68,688.47,201.57,681.33,203.24,671.15Zm-13-390.2c2.51,8.56,13.75,17.42,30,23.22,9.66,3.44,24.47,5.56,35.69.42,10.69-4.9,5.72-11.51,2-17.36-5.48-8.52-11.7-16.9-17.58-25.34-2.3-3.29-4.37-6.27-13.07-5.71C203.5,257.72,190.32,265.41,190.27,280.95Zm130.2,93.65h.09c0-3.42.06-6.84,0-10.26-.09-4.19-.58-8.9-10.23-9.31-17-.71-33.85-6.64-51.17-.86-.85.28-1.22,1-1.73,1.58-12.44,13.61-4.66,28.16,18.49,37.53,12.32,5,24.2,2.57,35.83.66s8-8.07,8.69-12.82A47.85,47.85,0,0,0,320.47,374.6Zm643.31,88.33v.13c5.72,0,11.53-.38,17.13.07,17.8,1.42,26.9-3.47,30.31-12.19,3.27-8.38,0-16.62-11.35-22.26s-23.47-1.31-34.55,2.26c-10.32,3.32-20.76,6.55-31.42,9.54-12.92,3.62-12.82,9.14-10,15.85s11.7,6.62,21,6.61Zm173.6-181.11c0-8.55-14-17.47-32.55-20.68-17-2.94-40.43,4-53.51,16-10.55,9.66,10.07,9.88,15.65,14.61,2.93,2.49,9,3.84,13.13,6,14.93,7.6,27.85.69,41.27-1.65C1133.92,293.84,1136.06,287.9,1137.38,281.82ZM396.49,250.35c2.94-8.07-9.08-12.66-18.83-17.79-6.68-3.51-12.64-9.14-24.35-5.64-12.1,3.61-27.18,6-25.59,16.38.6,3.95-1.05,8-2.25,12-2.32,7.73,4.31,12.52,16.66,15.42C366.67,276.48,396.12,265.88,396.49,250.35ZM365.06,48.65c2.42-7.07-4.75-11.28-14.78-14.41s-14,2.2-19.88,4.66-11.64,5-17.2,7.69c-21.35,10.25-21.32,10.28-5.33,23.34,4.75,3.88,10.26,7.55,14.07,11.69,7,7.55,15.8,7.53,27.57,3.35,7.25-2.58,12.24-5.49,12.32-10.38C361.95,65.89,362.09,57.19,365.06,48.65Zm4.66,389.56c-.18,4.75-2,11,14.4,12.85,14.75,1.63,22.54-1.55,28-8.5,4.72-6,10.47-11.75,16-17.54,5.91-6.17,12-11.52-1.33-18s-25.56-9.92-42.64-4.82c-6.64,2-10.81,4.38-11.26,8.56C372,419.39,370.91,428.06,369.72,438.21Zm52.87-392.6c4.84,10.8,9.69,21,14,31.35,2.56,6.17,7.88,7.16,16.41,3.12,14.24-6.73,28.22-13.61,42.42-20.36,8-3.82,6.64-7.27-.45-11-9.08-4.73-17.74-9.71-26.68-14.53-5.65-3-11.62-7.32-20.27-3.59C438.18,34.88,425.2,37.94,422.58,45.61Zm738.34,271.74c0-5.4-21.64-17.91-31.23-18-22.54-.26-44.47,12.41-44.49,25.7,0,4.93,34.44,20.18,45.8,20.27C1147,345.44,1160.82,332.51,1160.92,317.36Zm76.43,258.09c-1.18,3.18-.12,5.23,2.56,7,11.28,7.45,22.55,14.9,33.94,22.3,5.33,3.46,9.48,2.83,12.39-1.27,8-11.33,16-22.68,24.21-34,2.94-4.06.34-6.6-5-9.8-16.34-9.81-32.89-3-49.11-.75S1242.21,570.1,1237.36,575.44Zm-667.2.29c.65,12.51,19.79,25.35,37.7,25.28,9.06,0,38.66-16.25,38.31-21-.74-10-18.55-24.55-30-24.41C591.84,555.91,569.62,565.62,570.15,575.73ZM502.75,213.9v.1c-5.16,0-10.33-.11-15.48,0-8.86.24-19.81-1.26-23.27,5.15s-10.8,12.58.8,19.91c24.86,15.71,18.7,15.49,51.73,5.05,5-1.57,10.11-2.94,15.08-4.49,9.74-3,18.48-5.83,13.6-13.78-4.64-7.54-9.78-13.29-27-12C513.15,214.21,507.91,213.9,502.75,213.9Zm-426,400.79c-4,9.86,2.22,16.32,20.53,20.29,17.38,3.76,21.81-4.34,30.79-8.25,4.85-2.12,8.53-5,12.68-7.62,6-3.73,6.91-7.66,1.88-12-5.53-4.74-10.65-9.63-16.13-14.39a16.22,16.22,0,0,0-11.93-4.61c-21.12-.21-35.86,6.65-37.75,18C76.33,608.89,76.73,611.72,76.73,614.69ZM1077.4,564.21c32.5.48,49.7-13.8,36-28.69-2.05-2.23-4.08-4.47-6.17-6.69-9.9-10.51-22.58-12.16-39.81-5.2-24.2,9.77-24.2,9.77-14.62,25.43a58.28,58.28,0,0,1,3.76,6.22C1059.43,561.68,1066.26,565,1077.4,564.21ZM1192,370.9c0-11.15-22.88-23.78-42.78-23.59-15,.14-36.65,18.09-35.64,29.51.31,3.56,36.52,14,47.75,13.75C1170.2,390.39,1192,376.39,1192,370.9ZM494.29,314.75c2.82-.3,8-.59,12.92-1.41,15.26-2.54,20-10.17,24.29-17,3.59-5.7-8.88-7.16-14.79-10.13-6.73-3.38-14.52-6.12-21.57-9.32-7.58-3.44-14.63-5.57-24.51-1.79-11.87,4.54-25.27,8.29-24.18,17.72C447.2,299.41,479.56,314.67,494.29,314.75ZM535,624.35c1.68,3.89-5.86,10.11,7.82,12.89,14.22,2.88,28.12,6,41.37-1.35,4.76-2.65,10.76-4.64,16.17-7,15.89-6.79,14.07-18.41-2.12-24.83-17.78-7-32.5-3.25-49.17,1.2C533.37,609.49,535.08,616.43,535,624.35Zm41.47-153.68c-22.85,0-41.68,6.79-50.87,18.09-3,3.72-.45,6,5.19,7.7,9.06,2.66,18.28,5.16,27.53,7.62,27.94,7.44,32.54,6.59,46.32-8.43C619.61,479.39,609.81,470.7,576.52,470.67ZM116,453.93c-14-.82-27.22,6.57-24.52,13.69A74.89,74.89,0,0,0,103.43,489c8.44,10.29,27.13,11,39.89,2.07,7-4.9,14.26-9.71,21-14.73,8.72-6.51,6.3-12.94-7-15.69C143.45,457.75,128.86,456,116,453.93Zm984,7.93c.27-6.47-3.6-8.9-15.45-9.53-16-.85-32-1.42-48-2-7.72-.28-14.44.42-19.39,4.43-14.87,12-4.31,26.45,21.72,29.12,16,1.64,54.87-10.65,60-19A11,11,0,0,0,1100,461.86ZM835.65,277.29c20.24-.08,30.74-3.65,37.39-12.7,2.79-3.8-6-24.86-11.41-27.51-2.87-1.42-6.18-1.4-9.63-1.17-47.19,3.19-48.17,1-41.83,25.84.23.92.4,1.85.55,2.78C812.86,277.39,812.86,277.39,835.65,277.29Zm248.56,33.61c.42-6.53-36.6-24.75-45.85-23.72-2.11.24-4,1.19-5.9,1.83-16,5.36-26.18,16.81-21.63,24.35,5.51,9.14,32.76,18.9,50,17.82,7.36-.46,13.4-2.45,15.92-6.23C1080,320,1082.17,314.83,1084.21,310.91ZM1221.9,582.3c-11,1.2-21.18,2.26-31.27,3.44-3.52.41-7,1.51-7,3.61,0,7.29-3.39,15.15,11.5,20.12,8.78,2.93,16.74,6.57,25.31,9.69,10.29,3.76,38.14,1.62,46.24-3.41,3.19-2,5.71-4.31,2.52-6.76a251.11,251.11,0,0,0-38.62-25C1228.41,582.87,1224.42,582.77,1221.9,582.3ZM210.86,487c1.69-6.08-5.08-9.39-13.68-11.64s-17.65-2.89-24.71,2C162.64,484.24,152.58,491,143,498c-7.83,5.71-1,10.54,4,15.41,4.45,4.32,10.66,5.61,20,4.94,35.22-2.52,35.26-2.35,40.83-21.21C208.85,493.73,209.86,490.36,210.86,487Zm978.6-67.67c33.39-.38,53.8-6.9,52.6-16.79-1.6-13.22-19.65-24.62-38.69-24.44-10.9.11-34.42,13.7-34.17,19.75C1169.8,412,1176.89,419.47,1189.47,419.33Zm-10.26-107.69c11.3-.71,26-1.64,40.78-2.54,6.49-.39,10.69-1.64,10-5.86-3.15-17.94-33.29-28.87-65.72-23.73-17.93,2.84-26.07,8.16-23.29,15.22C1143.18,300.43,1166.65,311.88,1179.21,311.63ZM933,617.55c-21.34-.2-27.6,2.55-31,13.8a90.41,90.41,0,0,0-2.7,11.11c-1.44,8.4,31.41,22.2,46,19.52,7.58-1.39,10.51-4.61,12.06-8.38,2.24-5.47,4.3-11,6.13-16.48C966.13,629.05,948.31,617.69,933,617.55ZM477.78,459.83c5.62,7.91,9.71,17.16,19.53,24.83a19.87,19.87,0,0,0,23.08.49q10.41-6.8,20.53-13.74c3.47-2.38,4.13-5.19,2-7.93-5.37-6.85-10.68-13.74-16.79-20.4-4-4.33-11.55-6-20.21-5.23C497.67,438.63,477.35,454.24,477.78,459.83ZM338.41,335.6c-.37,13.18-.25,13.24,27.51,15.24,21.3,1.53,29.84-1.28,40.63-13.38,3.95-4.43-3-21.15-10.74-24.4a30.92,30.92,0,0,0-11-2.06C362.06,311.12,338.74,323.65,338.41,335.6ZM440.23,455.35c27.59,0,38.7-3.51,50.88-17.16,7.78-8.72-8.11-12.79-14.73-18.26-10.06-8.31-28.47-7.35-37.22,1.3-6.07,6-11.4,12.23-17,18.36C407.62,455.35,407.62,455.35,440.23,455.35ZM569.07,126.79c-5.89-6.93-10.37-17.06-21.65-23.88-8.69-5.25-22.8,2.21-34.7,3.45-6.12.64-11.91,2.14-17.9,3.18-6.59,1.14-8.78,2.87-6.31,6.92,16.14,26.43,25.77,28.91,71.8,17.87,2.08-.5,4.21-1,6.2-1.56C569.34,131.9,570.07,130.47,569.07,126.79Zm711,277.09c-8.35,2.81-22.75-1.21-32.65,5-15.77,9.94-.64,16.67,8.16,23.78,22.07,17.82,14.83,17.59,49.81,5.7,12.62-4.29,15-8.33,7.07-15-5.24-4.44-9-9.41-13.33-14.15C1295.8,405.57,1291,403.23,1280.09,403.88Zm1-225.34c-13.78.76-25.17,1.31-36.52,2.05-9.2.6-14.36,3.74-15.59,8.56-1.42,5.55-7.19,10.87,2.86,16.51,17.23,9.68,35.71,5.36,54.37,3,13.67-1.75,26.61-9.94,24.79-15.43C1308.95,187.13,1290,178.53,1281.06,178.54Zm-41.7,149.05c-4.76-4.15,0-12.91-13.07-14.11a175.22,175.22,0,0,0-52.45,3.24c-11.95,2.67-8.66,11.57-13,17.53a14.13,14.13,0,0,0-.8,1.82c-2.19,4.06-1.07,7.62,6.5,9.51,8.86,2.22,16.47,8.32,27.83,4.36,14-4.88,27.12-10.5,40.53-15.87C1238.36,332.71,1240.2,330.8,1239.35,327.59ZM359,561.06c-3.19.29-7.68.74-12.2,1.12-21.15,1.76-28.61,7.28-33.11,23.9-2.68,9.89,14.36,8.8,22.88,12.36,7.68,3.21,15.12,1.5,21.71-1.61,10.79-5.08,21.63-10.14,32.3-15.3,3.35-1.62,7.09-3.25,5.61-6.27C393.87,570.48,369.95,560.95,359,561.06Zm-39-314.46c3.34-8.59-2.92-13.31-19.13-16.36-48.44-9.11-36.47-11.08-57.91,16.34-3.48,4.45-.61,7,8,8.22q25,3.43,49.83,7.24c12.87,2,18.41-1.1,19.14-7.73A71.78,71.78,0,0,0,320.06,246.6Zm160.35,11.15c-2.89-6.28-14.8-12.05-25.07-18-10-5.8-21.43.23-32.1,1.14s-18.42,3.5-20,10.67c-1.47,6.82-1.42,12.12,11.39,15.65,6.56,1.8,12.16,4.64,18.19,7,6.68,2.62,13.36,5.14,21.65,1.65C464.93,271.46,480.91,269.83,480.41,257.76ZM917,302.5c-30.59-2.23-36,11.54-46.92,21.61-3.57,3.29-9.27,7.16-2.05,11,7.52,4,15.85,7.19,27.55,4.55,11.07-2.51,22.28-4.87,33.65-6.94,12.35-2.25,20.05-6.2,17.8-13.68C944.77,311.35,927.75,302.29,917,302.5ZM136.29,692.61c-5.49-7.22-4.66-18.53-18.13-23.9-9.12-3.64-21.87,4.57-33.49,6.82-1.6.31-3.09.81-4.61,1.25-27.35,8-33.82,4.64-8.67,21.23,22.82,15,33,15.51,59.52,2.44C134.5,698.68,137.21,696.84,136.29,692.61Zm290.88-96.17c-1.37-7.15-8.17-11.61-16.46-14.8-7.67-3-12.11,1.88-17,4.11-10.15,4.59-19.27,9.93-30.07,14-11.09,4.16-10.42,9.14-6.87,14.75,3.42,5.4,35.28,14.37,45.23,12.78,2.52-.4,5.81-1.44,6.63-2.62C415.26,615,421.42,605.28,427.17,596.44ZM234.34,352.24c20.86.09,25.27-2.72,22.1-14.08-1.63-5.84-3-11.7-4.9-17.52-2.87-9-19.91-13.89-34.69-10.12-11.91,3-26,16.24-23.49,22C199,345.72,212.38,352.14,234.34,352.24ZM443.79,457.78c-4.09,0-7,0-9.84,0-19.15.21-20.65,1.21-17,11.7,2.58,7.36,5.21,14.72,8.12,22,.83,2.09,1.71,4.6,4.28,6,5.17,2.75,11.16.61,15.83-.84,13.52-4.2,36.5-3,39.79-12.06,2.82-7.78-7.93-16.7-16.56-24C462.74,455.74,451.4,458.4,443.79,457.78ZM234.74,699c6.89,0,13.81.21,20.68,0,20.9-.74,22.82-2.07,20.86-13.62-3.13-18.46-3.13-18.46-37-17.84-29,.53-29,.53-31.67,16.26S204.95,699.56,234.74,699ZM166.83,324.1c21,2.22,28.76-7,37.69-14.24,7.85-6.38-5.36-9.86-10.12-14.39s-9.62-8.67-21.59-5.68c-14.58,3.64-29.58,6.78-44.33,10.23-12.48,2.91-12.89,8-5,12.7C134.74,319.41,147.55,325.44,166.83,324.1ZM355.64,682.94c0,3.1.22,6.21,0,9.31-.56,6.4,5.21,8.57,16.59,8.81,33,.68,33.39.79,46.07-16.28,2.87-3.87,8.7-8.39.47-11.93-10.64-4.58-18.36-12.57-35.66-10.54C357.62,665.27,355.29,667,355.64,682.94Zm-52-201.14c9.59-1.33,23.43,2.9,31.8-4,18.46-15.3,13-23.8-18.43-29.64-.54-.1-1.06-.24-1.6-.33-15-2.55-35.45,2.78-41.13,10.7C263.35,473.71,273.13,481.91,303.61,481.8Zm774.7,150.63c6.14-10-4.92-13.67-20.35-17.53-20-5-26,3.94-36.64,8.63-7.81,3.43-9.57,7.69-4.58,12.38,7.62,7.17,6.37,17.67,25.61,20.53a23.89,23.89,0,0,0,11.5-1.09C1068.78,650,1085.31,645.14,1078.31,632.43Zm-837.56,31v.07c6.31,0,12.63.1,18.93,0,13.74-.27,27.49-6.81,28.48-13.41.8-5.32-14.45-14.75-25.48-15.89-24.89-2.57-43.67,3.46-59,13.08-9.57,6-2.11,14.9,13,16.07C224.57,663.9,232.73,663.39,240.75,663.39ZM956,171.4c-2.51,4.35-.47,7.81,7.89,9.82,13.1,3.14,25.82,6.83,39.25,9.44,17.06,3.31,35.54-6.28,31.7-16-1.33-3.35-2.83-6.68-4-10-1.94-5.33-7.89-7-17.48-6.42-11.93.68-24,1.39-35.92,1.14C961.5,159.06,953,161.9,956,171.4ZM364.94,427.29h.38c0-2.81,0-5.61,0-8.42,0-14.42-2.17-15.68-27.18-19.13-8.74-1.21-13.1-.25-14,4.8q-2.15,11.61-4.89,23.19c-4,16.8-1.58,16.71,29.34,22.76,9.63,1.88,15.75-.87,16.27-6.37S364.94,432.9,364.94,427.29Zm4.58-365.94c-.23,19.17-.23,19.16,35.82,21.26,3.4.2,6.77.56,10.15.87,11.57,1.08,16.29-1.22,13.37-7.7-3.26-7.23-6-14.54-9.23-21.77-4.42-9.76-15.15-13.47-35.53-12.36-18.61,1-13.11,9.06-14.47,15A24.19,24.19,0,0,0,369.52,61.35Zm700.25,143c.23,13,12,20.09,33.16,19.81,18.49-.24,34.3-10.84,34.48-23.11.1-6.68-10.83-15.88-19-16C1091.63,184.61,1069.58,193.37,1069.77,204.39Zm-9.22,482c-2.51-4.23-5.79-9.84-9.16-15.43-3.27-5.43-6.4-11-20.1-10.5-9.78.38-34.68,10.54-35.81,14.47-3.71,13,4.2,20.86,26.56,26.43C1039.38,705.72,1059.85,698.55,1060.55,686.43Zm32.8-169.82c1.34-.15,4.7,0,6.74-.85,12.77-5.2,28.91-9.45,34.52-17.59,4.63-6.71-10.73-10.79-16.85-16.16-2.7-2.37-6.3-4.43-9.27-6.71-3.63-2.8-7.45-3-13.17-1.45-30.81,8.44-35.58,14.56-24.17,32.07.76,1.17,1.65,2.33,2.32,3.51C1076.26,514.36,1083.47,515.88,1093.36,516.61ZM916.08,262.32c22.93.17,29-1,30.8-6.12,2.48-6.94-9.26-21.93-19-23.24-13.93-1.86-28.12-3.19-42.24-4.59-9.24-.92-14.4,1.37-14.91,6.45C869,251.84,886,262.09,916.08,262.32Zm10.76-33.49c16.72.35,26.12-5.82,22.93-13.31-9.13-21.44-14.28-23.17-53.6-18-3.35.44-6.67.92-10,1.36-5.78.77-8.11,2.86-9.14,6-4.93,14.88-.16,18.83,27,21.69C912.42,227.45,920.89,228.24,926.84,228.83Zm299.74,147.86c14.66-1.74,25.16-8.3,37.24-13.23,10-4.1,9.91-14.2.31-20-9-5.43-18.88-9.17-32.16-3a242.53,242.53,0,0,1-23.59,9.28c-11.71,4-15.69,8.89-11,16.48C1202.09,374,1213.18,375.23,1226.58,376.69ZM851,280.34c-10.92.43-18.89.89-26.89,1-8.68.15-11.31,2.26-8.27,6.61,9,12.8,17.62,25.67,27,38.38,4.49,6.09,11.11,5.83,16.86.41,4.86-4.58,9-9.39,13.33-14.13,8.57-9.31.8-25.32-15.33-31.08A31.16,31.16,0,0,0,851,280.34Zm50,19.32c22.38-.21,42.58-11.23,42-23.22-.26-5.8-3.6-10.3-17-10.12-7.93.11-15.93-.59-23.86-1.11-16.07-1.05-32.93,5.07-34.43,12.62C866.39,285.09,888.75,299.78,901.06,299.66ZM1286.63,536c-2.53-4.78,5.34-12.11-8.51-15.88-21.86-5.94-35-3.74-47.59,7.68-3.52,3.2-7,6.43-10.2,9.71-1.89,1.9-3.61,3.88-1.7,6.18,4.06,4.89,26.31,12.18,34.57,11.27C1286.66,551.29,1287.08,551.07,1286.63,536Zm-545.25-43.1c.13-9.29-32.34-24.58-46.34-22.7-22.3,3-33.75,19.53-19.08,29.1a50.38,50.38,0,0,0,39.44,7.09C727.29,503.74,744,502.81,741.38,492.93ZM137.3,657.28c13.65-.78,27.42-1.18,40.91-2.46,15.92-1.5,19.63-5.8,11.72-13.08S173.31,627.57,165,620.48c-4.14-3.54-8.85-5-14.94-1.31-9.95,6-19.93,12-29.57,18.16-8.2,5.23-.7,10,2.37,14.79C125.15,655.67,129.86,657.77,137.3,657.28Zm1034.19-152c1.68,7.23,2.6,15,5.52,22.64s26.31,14,33.73,9.84c25.12-14.22,25.76-23.57,2.7-39a32.09,32.09,0,0,1-3.08-2.25c-4.6-4-10.91-4.55-17.64-2.07C1184.91,497.37,1171.24,496.85,1171.49,505.28ZM927.35,369.89c-20.48-2.85-29.68,2.89-33.43,12.94-1.13,3-3.36,5.94-5.35,8.85-3.52,5.16-1,8.16,9.72,7.21,17.61-1.56,35.36-1.07,53-1.72,17.35-.64,24.43-9.83,14.77-17.47C956.56,372.17,945.29,367.26,927.35,369.89Zm-316.95,183c11.19.76,21.23-1.3,27.22-8.49s-1.08-11.83-9.41-16.4q-5.45-3-11-5.95c-27.44-14.8-33.46-13.89-43.41,6.59C567.37,541.93,583,552.9,610.4,552.88Zm431.47-129.12c-7.91.19-14.23.15-20.45.56-5.89.39-8.8,2.38-8.75,5.78.13,8.78,9.7,15.38,25.84,16.55,17.54,1.28,35.22,2,52.86,2.85,9.05.42,16.09-1.27,17.22-6.74,1.08-5.29-15.35-16.13-25.63-16.82C1068.78,425,1054.53,424.42,1041.88,423.76Zm-511-39.52c13.22,1.5,19.47-2.84,21-10.82,1.26-6.81,3.69-13.55,5.65-20.32,1.05-3.61.48-6.81-6.08-8.94-5.77-1.88-10.92-1.21-16,.72-13.63,5.18-27.29,10.33-40.87,15.54-3.85,1.48-6.8,3.15-5.69,6.2C491.95,375.28,511.56,384.14,530.86,384.25Zm4.08,156c-5.75,0-11.51-.13-17.24,0-18.41.49-22.59,3.9-16.39,13.16,9,13.36,17.41,16.18,49,16.32,11.32,0,29.08-8.35,30.19-14.27.94-5-15.6-14.64-26.58-15.17C547.62,540,541.26,540.24,534.93,540.24Zm-140.2,99c.56-8.88-10.2-9.8-18.12-11.5-8.32-1.79-17.41-6.62-26.54-1S332.61,638.35,324,644.17c-2.21,1.49-3.69,3.05-2.41,5.14,3.6,5.86,31.28,13.68,42.37,11.89C388.07,657.29,394.85,652,394.73,639.27Zm76.34-281.52c-3.92-5.54-6.45-12.11-14.29-17.19-6.66-4.31-36-4.56-42.89-.84-20.05,10.79-20.79,16.31-4.38,28.75,4.29,3.25,8.68,6.31,16.67,4,15-4.4,35-3.8,45-13.19C471.44,359,471.17,358.64,471.07,357.75Zm593.13-143.49c-.74-5.29-1.06-10.6-2.33-15.85-1.86-7.65-14.62-11.28-28.05-8.59-18.52,3.71-24.32,11.91-29.31,21.37-3.91,7.41,2.92,11,10.87,15.25a31.44,31.44,0,0,0,25.12,2.18C1050.66,225.1,1063.89,222.61,1064.21,214.27Zm55.11,140.19c1.08-7.57-34.37-23-45.82-20.85-3.06.58-6.8,1.81-8,3.28-6.13,7.5-15,14.56-7.67,23.71,8.12,10.09,24.74,12.15,41.25,14.67,4.69.72,7.67-1,9.13-3.2C1112.22,365.92,1116,359.72,1119.32,354.45ZM949.16,270.2c-.62,5,3.46,8.56,12.84,10.49,13.39,2.75,26.85,5.46,39.85,8.69,14.8,3.68,23.36-1.91,30.6-6.58,7.64-4.93-4.63-7.17-8.79-10.36-2.62-2-7.16-3.33-9.36-5.43-11.77-11.16-29.29-11.05-49.17-8.34C953.63,260.24,948.59,263.67,949.16,270.2Zm198.51,372c.2-12.34-23.57-26.55-44-26.29-14.37.18-19.74,4.23-19.88,15-.18,13.88,16.16,23.59,40,23.74C1134.35,654.67,1147.58,647.8,1147.67,642.19Zm145.6-359.91c1.2-9.81-10.25-14.39-24.41-17-16.73-3.11-26-.2-38.49,10.58-7.59,6.55-5.84,17.34,6.12,23.82,10.44,5.66,19.58-1.18,29.16-2.58,5.41-.79,10.21-2.76,15.44-4C1290.07,291,1294.45,287.44,1293.26,282.28Zm-124.1,245.34c-1.49-8.25-2.46-13.83-3.51-19.41-1.67-8.84-12.34-11.4-26.36-6.33-31.94,11.54-34.62,17.3-16.6,35.65a25.59,25.59,0,0,0,4.25,4,12.85,12.85,0,0,0,5.48,1.91C1145.13,544.57,1169.51,532.1,1169.16,527.62ZM397.88,267.49c-15.09-.2-28.92,9.75-24.32,17.65,3.1,5.32,6.34,10.63,10,15.84s10.73,7.45,20.38,5.08a130.17,130.17,0,0,0,31.83-12.4c4.57-2.51,6.08-6,4.16-9.54C437.83,280.23,405.62,267.59,397.88,267.49ZM511.25,317.4c-20.28-.06-37.43,7-42.91,17C463.66,343,473.69,350,480.26,357c2.82,3,8,.53,11.69-.86,10.78-4.11,21.61-8.18,32.2-12.43,5.63-2.26,15.86-4.18,10.21-9.07C527,328.3,525.77,318.61,511.25,317.4ZM1186,647.92c8.11.12,34.34-16.08,34.47-21.29.06-2.53-30.19-15.19-37-15.48-9.76-.42-33.49,11-33.91,16.32C1148.61,640.06,1162,647.55,1186,647.92Zm-919.83-48.7c5.87.44,11.61.4,15.27-2.71,3.95-3.35.15-6-3.32-8.46-10.86-7.63-22-15.16-33.08-22.68-2.47-1.67-4.89-3.36-9.86-3-13.49.9-26.39,9.73-24.28,16.86,5.25,17.74,5.25,17.71,38.22,18.91C254.88,598.31,260.54,598.84,266.22,599.21Zm760.65-112.38c-10.52-.36-19.38,5.34-16.73,12a141.71,141.71,0,0,0,13.2,25.21c3.73,5.71,11.44,7.26,21.93,3.72,23.2-7.82,24.12-10.21,16.06-25C1056,493,1047.73,486.31,1026.87,486.83Zm-38.6-266.49c-26.19,0-42,5.78-41.74,15.2.32,11.84,8.72,19.13,21.89,19,22.38-.19,43.75-10.75,43.6-21.56C1011.94,227.53,998.45,220.33,988.26,220.34ZM527.64,621c.54-11.5-16.11-23.44-35-25.2-9.29-.87-17.38.27-16.92,7s.56,13.64.9,20.46c.14,2.84.5,6,5.7,7.35,11.79,2.95,24.23,7.51,37.1,5.19C532.92,633.41,525.4,625.58,527.64,621Zm-49.69,14c-12.15.93-21.66,2.36-22.55,9.77-.49,4-2.34,8-2.86,12C451,668.45,454.8,670.26,478,673.38c19.26,2.6,18.31-5.67,22.37-11.2,3.38-4.61,5.83-9.43,8.47-14.19s-.24-7.95-9-9.43C492.19,637.27,484.5,636.1,477.94,635.05ZM802.62,287.9c-.43.37-1.59,1.42-2.88,2.43-7.17,5.61-14.38,11.2-21.55,16.8-3.23,2.52-3.9,5.1-.58,7.79,8.29,6.7,16.3,13.5,24.88,20.08,7.38,5.66,16.15,2.41,24.54.68,9-1.85,10.13-5.21,7-9.72-8.08-11.61-15.9-23.28-23.86-34.91C809.18,289.64,808.39,288,802.62,287.9Zm-135,216.36c.23-11.08-13.25-18.11-31.55-18.41-20.09-.33-20.93,9.2-27.43,15.53-5.94,5.79,18.57,25.45,30.67,25.28a7.53,7.53,0,0,0,3.15-.55C653.17,519.15,661.92,511.55,667.65,504.25ZM889,686c29-.31,40.68-5.11,40.17-16.56-.18-4.09-26.1-15.62-35.37-15.74-10.66-.13-35.4,10.8-34.84,15.4C860.35,680.77,869.95,686.17,889,686Zm89.41-150.7c16.81-.22,36.78-5.81,36.8-10.32.05-10.07-13.22-26.24-21.59-26.3-16.31-.12-42.07,6.44-41.75,10.62C952.56,518.54,969.75,535.38,978.38,535.27Zm287.19-134.14c24.84-.74,42-8.35,40.28-17.85-.67-3.72-25.53-17.58-31.45-17.54-8.19.06-36.52,14.32-36,18.15C1239.7,394.4,1251,401.56,1265.57,401.12ZM441.5,333.74c14.32.49,33.61-8.08,34.34-15.26.36-3.55-28-19-35.08-19.1-7.87-.12-33.33,10.56-33.87,14.21C405.45,323.49,421.91,333.07,441.5,333.74ZM1030,399.65c-.37-7.46-18.64-16.55-32.73-16.28-13.13.25-25.84,8.23-25.65,16.13.23,9.68,17.93,23.46,30.32,23.61C1011.43,423.22,1030.38,407.37,1030,399.65ZM526.53,572c-13.4-.36-27,7.91-27.1,16.51-.06,3.95,24.65,15.12,34.08,15.42,9.1.28,35.54-8.72,36-12.25C571.09,578.52,558.69,572.84,526.53,572ZM102.8,398.15c-14.79.18-26,6.15-22.19,11.13,14,18.46,34.45,22.34,64.71,12.29.49-.16,1-.31,1.49-.46,7.17-2.19,11.2-5.61,9.92-10s-6-8.27-14.77-9.27C128.55,400.35,115,399.28,102.8,398.15ZM1123.88,666c0-2.22-.1-4.76-3.52-6-11.37-4.23-23.79-8.12-37.5-8.45-17.26-.42-29.32,9.39-23.94,18.15,11.28,18.35,6.39,16.73,41,10.65,2.72-.48,5.38-1.08,8.14-1.5C1120.06,677,1123.72,672.11,1123.88,666ZM535.81,536.19C562.4,536,563,535.85,570.09,522c1.9-3.7,7.14-8.61-2-10.88-13.83-3.41-26.52-9-42.61-8.84-4.14,0-4.77,3.28-5.71,5.35-2.74,6.06-4.5,12.28-7.91,18.22-4.61,8.05.45,11.15,15.36,10.31C530,536.05,532.94,536.19,535.81,536.19ZM927.6,365.4c1,0,4.4-.06,7.82,0,16.89.36,18.86-7.2,24.54-13.15,5.9-6.17-.72-9.57-7.11-13.78-8.74-5.76-17.46-2.36-26.31-.85-5.43.93-10.62,2.26-16,3.36-21.36,4.42-21.48,5.37-14.44,16.82C901.41,366.38,913.1,365.64,927.6,365.4Zm-302-79.74c-11.4.11-36,7-36.33,10.17-.37,4.15,26.37,26.67,31.49,26.52,6.77-.2,38.68-13.36,38.58-15.9C659.21,302,632.49,285.59,625.62,285.66ZM342.05,528.45c10.4,0,18,.44,25.28-.1,12.31-.9,28.39-12.72,22-16a135.21,135.21,0,0,0-41.11-13c-9.83-1.47-13.6,5.84-19,9.44-7.19,4.76-22.24,9-17,15.81C317.71,531.9,333.79,527.31,342.05,528.45Zm33.71-227.91c-3.3-5-7.06-12.59-13.21-19.55-5.66-6.4-17.16-6.29-23.68-.11s-11.28,12.94-18,19.06-1.55,9.53,5.94,13.66c8,4.4,15.12,4.55,24.09,1.14,6-2.3,13-3.92,19.49-5.85C374.73,307.62,377.73,305.91,375.76,300.54ZM963.57,656c.27,5.17,14.28,11,26.13,10.91,10.83-.1,32-9.22,31.44-13.54-1.54-11.63-17.55-23.11-32.16-23C973.68,630.38,962.82,641.36,963.57,656ZM737.77,280.64c.49-6.45-2-12.1-12.61-12.67-11-.59-21.83,2.41-25,9.14-3.4,7.25-5.07,14.73-8,22-2.39,5.9-1.32,11.41,10.85,12.6,11.76,1.15,23.82-.75,27.29-8.12C734,295.79,735.56,287.66,737.77,280.64Zm407.59,304.57.05-.35c2.85,0,5.74.16,8.55,0,7-.47,16.58,1.59,19.94-3.05s-1.55-9.22-7.93-12.51c-10.32-5.33-21.31-10.28-32.1-15.34-2.78-1.3-6.54-2-9.41-.61-8.86,4.3-20.84,8.82-20.4,15.15.42,6,8.38,12.42,19.45,15.45C1129.65,585.6,1138,584.86,1145.36,585.21ZM990.5,688.79c-.59-5.52-.38-8.36-1.28-11.1-2.76-8.45-17.18-9.28-28.21-11.84-7.7-1.78-16-.49-21.6,3.37-16.95,11.59-10.92,21.59,15.37,25.68,3.85.6,7.75,1.12,11.61,1.7C988.37,699.89,991.73,698.41,990.5,688.79Zm181.42-451c12.57-.11,24-11.59,23.67-23.84-.13-5.09-18.77-9.7-40.29-10-9.08-.11-19.09,7.87-19.14,15.26C1136.08,226.94,1157.33,237.94,1171.91,237.81Zm4.28,360.13c1.36-6.52-4.91-9.58-18.14-9.12-8.57.29-17.2.15-25.79.29-11.14.19-14.14,4.81-15.89,9.45-1.84,4.86-9.93,10.55.72,14.59,8.41,3.19,18.44,8.86,29.17,5.06C1159.32,613.58,1177.77,610.38,1176.19,597.94ZM468.78,618.25c0-4.72-.38-8.16.08-11.56,1.06-7.92-8.42-9.85-20-11.23-13.38-1.61-15.15,3.65-18.1,8.36-3.15,5-5.85,10.1-9.27,15s-3.19,9.2,7.57,11.29c12.64,2.46,25.85,7.4,38,.37C473.49,626.83,467.65,621.48,468.78,618.25ZM964.41,314.61c9.07-1.23,19.91-2.22,30.08-4.2s11.28-7.64,12.3-12.45c1-4.6-7.85-4.7-13.13-6-8.28-2.11-16.91-3.84-25.5-5.56-7.21-1.44-15.43-4.84-21.53.25-5.69,4.75-14.66,9.78-7.66,16.09C944.57,307.77,948.25,314.56,964.41,314.61ZM707.78,525.45c-.26,8.45-2.1,18.68,13.65,19,18.47.41,23.16-12.2,35-18.54,5.14-2.76,9.77-5.81,4.07-10.64-11.8-10-15.75-10.27-36.14-6.55C706.21,512.06,707.2,519.09,707.78,525.45ZM447.85,646.54c2.62-6.79-5.73-9.72-16.37-11.5-8.86-1.48-19.93-5.92-26.49-.24-7.46,6.46-11.37,15-5.37,22.22,5.6,6.75,18.21,11.08,31.67,13.16,7.06,1.09,11.9-1.67,12.86-5.65C445.56,658.71,446.57,652.84,447.85,646.54ZM293.67,555c-9.13.67-21.08,1.41-32.94,2.46-9.07.81-12.06,3.3-5.8,7.71,10.5,7.39,20.79,14.86,31.49,22.17,7.78,5.31,15,4.27,19-1.64,4.38-6.39,8.26-13,10.59-19.67C318.71,558.34,311.31,554.58,293.67,555Zm769.88-294.69c-8.16-8.71-13.48-18.18-25.32-25.48-5.82-3.58-13.42-2-18.87,1.94-17.59,12.89-17.13,17.58,3.49,29.45a53.31,53.31,0,0,0,4.72,2.73c4.86,2.2,7.21,8.55,14.86,5.84C1051.53,271.55,1059.06,266.46,1063.56,260.31ZM152.83,455.66c10.62.64,26-12,24.25-18.71-2.34-8.86-22.25-14.17-36.36-9.72-5.95,1.88-12,3.65-17.94,5.53-9.23,2.92-11,7.94-10.55,13,.42,4.84,9,5,15.38,6C136.37,453.17,145.22,454.48,152.83,455.66Zm86.3-37c15.32-.47,35.44-10.64,35.24-17.82-.13-4.76-21.68-14-31.5-13.56-18.3.88-33.78,6.9-33.6,13.07C209.42,406.06,230.38,418.92,239.13,418.65Zm77.81-12.27c-.86-2.44,1.84-6.9-5.7-7.36-10.12-.62-21.61-.2-28.16,4.84s-18.38,9.78-12,17.13c5.35,6.13,13.07,11.67,19.94,17.39a15.22,15.22,0,0,0,11.38,3.41c6.58-.5,7.49-3.46,8.14-6.26C312.76,426,314.76,416.41,316.94,406.38ZM339.2,558.7c11.08-1.06,24.85,1.41,30-7.36,8.54-14.5,3.36-18.61-24.49-18.7-5.74,0-11.48-.06-17.22,0-4.68.09-10.06.38-11.54,3.14-3.17,5.91-7.31,11.89-.69,18.06C320.94,559.13,329.4,559.68,339.2,558.7ZM975.68,217.25c7.16-.28,14.86.56,19.79-3.77,12.87-11.33,9.92-17.43-11.77-22.91-6.74-1.7-13.58-3.34-20.59-4.68-13.61-2.59-23,1.77-19.45,9.43,2.37,5.08,7.26,9.79,10.68,14.74C958.1,215.47,965,217.92,975.68,217.25ZM141.38,335.89c.33-1.86,1.23-3.75.9-5.57-1.15-6.28-10.76-8.73-19.39-10.68-8.06-1.82-9.82,3.18-13.09,5.78-6.79,5.4-13.1,11-19.51,16.51-3.64,3.15-8.71,6.47-2,10,5.69,3,11.62,5.75,21.17,4.41C133.62,353,139.35,349.54,141.38,335.89ZM268.5,493.4c1.48-6.76-4.07-9.43-16.54-9.68-33.4-.65-33.62-.74-38.08,17.52-.67,2.76-2.1,5.5-2.28,8.27-.43,6.53,4.84,8.72,15.86,5.41,9.48-2.85,18.49-6.2,28.21-8.76C265.93,503.45,269.75,499.27,268.5,493.4Zm6.72,2.28c-.36,5.44,17.5,20.5,23.83,21.16,12.08,1.27,13.72-5.37,19.76-8.57a99.28,99.28,0,0,0,15.29-10c7.82-6.23,3.21-11.5-10.86-12.26-8.51-.46-17.22.24-25.74-.2C281.08,484.9,273.8,488.72,275.22,495.68ZM1245.83,225c-.38-1.63-.19-4.25-1.68-6.55-4-6.09-13.62-9.13-23.93-11.06-5.83-1.09-11.72,1-14.15,4a65.11,65.11,0,0,0-12.59,24.19c-1,3.72,4.48,5.47,10,6.71C1219.89,246,1246.8,235.53,1245.83,225ZM692.17,277.31c-1.58-8.24-16.1-6.57-25.82-8.43-6.63-1.27-14.69-3.12-19.68,1.84-4.62,4.6-10.71,9.27-3.88,14.67,7.75,6.13,15.52,12.28,24.15,18,8.28,5.52,15.11,3.67,17.7-2.51C687.81,293.37,689.58,285.65,692.17,277.31Zm206.06,437.6c11.37.94,16-1.51,17.55-5,2.87-6.37,13.53-11.95,7.43-19.2-.9-1.07-4.7-1.83-7.31-2-13.75-.84-27.63-.57-40.63,2-13.2,2.57-12.82,9.9-14.09,15.75-1.39,6.44,9.84,5.5,17.11,6.4C886.09,713.76,894,714.46,898.23,714.91Zm282.18-143.19c.11,7,2.68,11.25,16,9.6,7.24-.9,14.77-1.24,21.83-2.43,16.51-2.77,16.22-11.11,18.81-18.2,1-2.63-21.84-14.71-26.62-14.72-1.55,0-3.89.28-4.54.87C1196.56,555.29,1184.58,563,1180.41,571.72Zm-2-330.82c-6.45.87-14.2.46-18.75,3.73-6.19,4.46-11.67,9.21-17.19,13.93-7.45,6.37-6,14.66,2.74,17.43,8.38,2.65,34.22-2,37.14-7.38,3.74-6.82,6-13.91,8.13-20.94C1191.92,242.95,1187.13,240.75,1178.38,240.9ZM676.17,539.64c5.7-1.29,19.18,3.29,23.1-4.71,2.62-5.35,3-11.06,3.64-16.64.77-6.65-9.39-7.67-17.77-9.58s-12.85.64-16.74,4.06c-6.61,5.83-13.71,11.51-19.71,17.51-4.94,4.94-2,8.54,8.79,9.3C662.56,539.93,667.78,539.64,676.17,539.64ZM272.63,612.4c4.32-7.86-3.65-10.4-18-10.39-8.52,0-17.07-.65-25.56-1.22-10.77-.72-15.79.91-11.11,7.19,3.65,4.89,7.57,9.75,10.53,14.77,3.12,5.28,9.31,7.16,19.21,7.25C268.09,630.18,270.74,628.58,272.63,612.4Zm22.49-308.06c8.17,1.16,13.53-.61,17-4.43,6.36-7,12.74-13.91,19.06-20.88,4-4.4,1.28-7.87-5.59-10.51-7.41-2.86-13-.68-17.72,2.37-10.7,6.87-21.55,13.69-31.78,20.77-10.63,7.35-7.81,10.83,9,12C288.55,303.92,292,304.14,295.12,304.35Zm11.53,236c.43-12.09-2.71-14.86-14.19-12.6-14.5,2.86-28.5,6.49-42.5,10-10.13,2.57-8.76,7.6-6.94,12.19,2,5,9.39,4.54,16.52,3.93,9-.77,18.07-1.79,27.18-2.11C301.66,551.23,309,547.56,306.65,540.3ZM1277.4,253.64c-1.81,7,3.35,11.67,13.15,14.58,9.61,2.85,14.31-2.08,20.16-4.73,7.91-3.58,15.75-7.22,23.37-11,3.88-1.92,8.35-4.66,2.45-7-9.72-3.86-18-10-33.13-7.18C1289,241,1276.58,244.39,1277.4,253.64ZM265.06,451.46c16.23,0,23.44-6.7,15.81-14-4.53-4.34-9.78-8.47-14.69-12.69a14.17,14.17,0,0,0-11-3.79c-11.7.75-23,2-27.67,9.14s1.7,12.37,11.05,16.32C246.27,449.67,256.33,450.66,265.06,451.46ZM1104.27,243a48.61,48.61,0,0,1,0,5.24c-.71,6,3.5,10,14.51,12.16,12,2.39,14.91-2.5,19.56-6.26,3.2-2.59,5.95-5.38,9.57-7.78,12.79-8.46-2.3-12-9.86-16.78-8.61-5.49-18.58-4.38-27.67-.86C1100.73,232.45,1105.77,238.53,1104.27,243Zm-39.58,156.12c23.06,1.07,27.1-.49,34.91-11.9,2.78-4.05,1-6.25-5.71-8.3-21-6.39-33.49-5.24-52.75,5.13-4.78,2.58-8,5.13-5.63,9,2.54,4.14,7.73,6,15.44,6C1055.53,399.16,1060.11,399.13,1064.68,399.13ZM953.3,327.63c-.38,6.67,16,16.93,27.07,16.93,9.19,0,32.87-13.51,31.27-18.85-1.47-4.89-3.2-11-16.35-11C972.16,314.56,953.71,320.39,953.3,327.63Zm-716,152.24v-.05c2.3,0,4.61.07,6.89,0,8.79-.33,20.42,1.17,20.56-6.4.14-7.2,6.67-15.52-13.45-19.59-19.47-3.93-26.06,3.13-33.72,9.54-4.35,3.63-14.18,6.87-8.63,12.17,5.35,5.12,15.77,4.24,24.9,4.34C235,479.88,236.16,479.87,237.31,479.87ZM738.76,299.33c-.59,3.76-1.89,7.12,5.74,8.29,9.41,1.44,19.35,3.2,26.61-2.14,7.45-5.47,14.21-11.23,21.07-16.93,3.77-3.13,3.61-5.41-4-7.13-32.51-7.34-42.22-4.63-48.27,14C739.37,296.91,739,298.45,738.76,299.33ZM192.33,434.27c17.93.11,30.29-4.45,30.45-11.24.13-5.43-16.9-16.88-25.5-17.16-13.82-.44-33.67,6-34.19,11.1C162.5,422.66,182,434.21,192.33,434.27Zm905-192.49c-2.13-4.51,5.44-10-3.45-13.27-9.87-3.63-21-7-33.38-2.45-8.53,3.12-14.34,7.36-7.3,12.47,9.13,6.63,5.91,19.1,29.1,19.12,5.56,0,12-1.2,13.31-4.85S1096.82,245.39,1097.33,241.78ZM920,715.58c2.36,7.74,12.62,13,21.31,18.45,3.59,2.27,7-.74,8.64-2.62,7.12-8.11,13.92-16.3,20.94-24.43,2.9-3.36.86-5.21-5.45-6.19-7.12-1.11-14.15-2.4-21.22-3.61-5.51-.95-10.4-.67-12.86,2.57C927.43,704.9,923.88,710.12,920,715.58ZM204.8,437.16c-17.5.2-38.13,16.26-32,24.57,3.1,4.18,8.62,7.34,17.46,8.13,8.42.75,12.26-2.45,16.29-5.55,4.62-3.56,9.2-7.13,14.06-10.59,5-3.59,6-7.12,1.73-11.21S212.23,436.8,204.8,437.16ZM248,369.88c-.2-6.89,1.58-12.27-11.74-14.28C222.63,353.54,216,357,211,363c-2.59,3.09-6.16,5.94-9.43,8.85-5.16,4.59-1.23,8.2,3.81,11.85s11.11,3.24,18.34,2.33C241.48,383.83,250.89,378.58,248,369.88ZM1252.83,224c-.22,6.84,13.16,14.78,25.41,15.1,11.26.29,29.13-6.61,27.14-11.27-2.45-5.7,2-14.46-15.72-15.27C1268.34,211.58,1253.06,216.66,1252.83,224ZM224.89,629c-4.92-6.52-9.79-13.51-15.53-20.29-2.43-2.87-7.52-2-12.14-1.15-28,4.85-29.86,7.74-13.53,21.16,2.85,2.34,5.59,4.73,8.63,7,3.33,2.49,6.84,6,13.52,3.94C213.41,637.26,222.72,635.36,224.89,629Zm790.77-271.8c23.15.34,37.72-6.54,37.35-17.11-.31-8.95-15.58-7.61-25.42-9.15-8.31-1.3-28.67,9.71-27.93,15.09C1000.48,351.92,1006.49,356.3,1015.66,357.17Zm-35.4-8.1c-8.65.14-22.38,10-22.23,16,.13,5.36,18,15.33,27.05,15.14,9.59-.2,20.64-10,20-17.67C1004.63,356.53,990.54,348.91,980.26,349.07ZM293.59,520.64c.6-4.94-23-14-31.27-11.71-7.63,2.08-14.72,4.73-22.16,7-7.89,2.43-16.9,3.74-9.65,10.91,6.44,6.36,12.18,8.87,25,4.91,9.34-2.9,19.83-4.7,29.8-7C288.92,523.92,292.9,523.26,293.59,520.64ZM175.15,377.94c-12.44-.52-17.63,3.79-19.16,16.46-.61,5-1.12,10.55,11.89,11.14,14.88.68,35.9-6.49,36.68-12.07C205.44,387.12,189.16,378.52,175.15,377.94Zm890.72,43.95c9.08-1.35,23.21,2.7,23-7-.18-8.4-7.46-12.66-23.74-11.61-5.67.37-11.5-.09-17.2.18-13.8.66-18.49,6.89-19.47,12.47-1.09,6.17,11,3.5,17.29,4.48C1052.28,421.41,1059.33,421.44,1065.87,421.89Zm124.5-154.72c-.27,6.29,9.75,10.88,21,10.91,7.13,0,21.39-9.46,21.44-14.25.06-6-17.37-18.23-25.94-16.71C1187.77,250.48,1197.64,261.65,1190.37,267.17Zm4.91,279.24c0-3.4-3.43-4.56-6.86-5.78-11-3.94-42.29-.19-47.06,6.94-4.43,6.63,10.22,8.34,16.82,12,2.38,1.34,5.24,2.43,7.93,3.6,2.84,1.23,6.55,2.3,9.3.71A69.55,69.55,0,0,0,1195.28,546.4ZM1039,359.15c-19.63.21-33.75,7.65-32.33,17.37.94,6.47,11.51,7.25,19.9,8.26,7.51.9,31.72-12.22,29.72-16C1053.83,364.23,1050.87,359,1039,359.15ZM152.53,385.46c-5.65-9.37-23.24-8.45-36.05-9.69-15.56-1.5-14.2,8-14,12,.62,11.85,20.94,7.7,33.07,9.37C152.1,399.4,148.73,391,152.53,385.46Zm-6.35-39.75c0,5.11,5.5,7.73,14.93,7.64,10.38-.1,28.66-8.33,28.69-12.5.05-8.28-7.84-12.63-23.1-12.57C147,328.38,150.71,330.12,146.17,345.72Zm15.4,23.1c-1.05-5.58-2.7-11.72-16.17-13.11-13.88-1.44-25.56,1.92-35.84,6.59-1.54.7-1.55,3-.95,4.36,1.84,4.26,42.83,11.31,49.4,8.57C161.6,373.75,161.66,371.51,161.57,368.82Zm137.17-99c.93-2.61-.68-3.88-3.72-4.35-13.25-2-26.43-4.31-39.9-5.8-7.36-.81-6.57,2.34-4.86,4.91,4.5,6.75,9.06,13.48,13.77,20.19,1.15,1.63,3.49,4.67,6.59,2.87C280.75,281.73,291.9,276.25,298.74,269.77Zm972.81-24.53c-.52-3.67-9.66-6.66-20.64-7.93-6.72-.78-23,7.58-22.75,10.87.32,5.19,14.14,12.92,22.72,13C1266.61,261.27,1271.42,256.14,1271.54,245.24ZM196.85,349.64c-10.66-.28-30.26,7.59-29.73,12.32.56,5-.15,11.24,13.1,12.41,8.75.77,26.67-11.34,27.62-18.29C208.47,351.47,202.61,350.38,196.85,349.64Z" fill="#888b8d"/></svg>