<svg id="Layer_1" data-name="Layer 1" xmlns="http://www.w3.org/2000/svg" viewBox="0 0 273.86 295.11"><defs><style>.cls-1,.cls-2,.cls-3{fill:none;stroke-linecap:round;stroke-miterlimit:1;}.cls-1{stroke:#888b8d;}.cls-1,.cls-2{stroke-width:4px;}.cls-2,.cls-3{stroke:#960c22;}.cls-3{stroke-width:5px;}</style></defs><title>zeolite</title><path class="cls-1" d="M224,242.84c-4.8,0-9.6,0-14.4,0a4.73,4.73,0,0,0-2.15.53q-10.93,6-21.81,12.1a4.15,4.15,0,0,0-1.47,1.48c-4.84,8.33-9.64,16.68-14.49,25a5.25,5.25,0,0,1-1.7,1.75q-7.19,4.45-14.45,8.78a4.14,4.14,0,0,1-2,.56q-14.64.05-29.28,0a4.13,4.13,0,0,1-2-.57q-7.31-4.37-14.55-8.84a4.48,4.48,0,0,1-1.47-1.49c-4.87-8.36-9.69-16.75-14.56-25.1A4.62,4.62,0,0,0,88,255.45q-10.82-6.07-21.71-12a4.67,4.67,0,0,0-2.14-.55c-9.64,0-19.28,0-28.92,0a4.36,4.36,0,0,1-2.11-.59q-7.31-4.36-14.55-8.84A4.23,4.23,0,0,1,17.22,232Q9.81,219.21,2.48,206.41A3.85,3.85,0,0,1,2,204.5q.19-7.92.5-15.83a4.18,4.18,0,0,1,.57-1.78C7.69,178.58,12.35,170.29,17,162a5.14,5.14,0,0,0,.62-2.37q.06-13,0-26a5.5,5.5,0,0,0-.68-2.58c-4.75-8.33-9.58-16.62-14.34-25A4.31,4.31,0,0,1,2,103.89c.12-5.2.29-10.39.49-15.59A3.89,3.89,0,0,1,3,86.62q7.1-12.79,14.28-25.53a3.7,3.7,0,0,1,1.52-1.4q7.16-3.51,14.38-6.9a5.3,5.3,0,0,1,2.17-.5c9.56,0,19.12,0,28.68-.05a4.7,4.7,0,0,0,2.33-.66q11.17-6.9,22.27-13.92a4.71,4.71,0,0,0,1.53-1.6C94.82,27.71,99.48,19.32,104.2,11a4.12,4.12,0,0,1,1.67-1.57c4.77-2.35,9.57-4.63,14.38-6.9A5,5,0,0,1,122.3,2q14.64,0,29.28,0a4.75,4.75,0,0,1,1.95.44q7.32,3.45,14.59,7a3.7,3.7,0,0,1,1.49,1.43c4.7,8.32,9.34,16.67,14,25a5.46,5.46,0,0,0,1.75,1.87q11,7,22.17,13.86a4.47,4.47,0,0,0,2.22.64c9.56,0,19.12,0,28.68.05a5.59,5.59,0,0,1,2.28.51q7.27,3.41,14.49,6.94A3.28,3.28,0,0,1,256.58,61q7.21,12.8,14.34,25.64a3.63,3.63,0,0,1,.44,1.57c.2,5.24.38,10.47.49,15.71a4.31,4.31,0,0,1-.55,2.13c-4.76,8.33-9.59,16.62-14.34,25a5.26,5.26,0,0,0-.67,2.47q-.07,13.08,0,26.16a5.14,5.14,0,0,0,.63,2.36c4.57,8.25,9.19,16.47,13.76,24.73a5.78,5.78,0,0,1,.7,2.46c.22,5.11.37,10.23.49,15.35a3.85,3.85,0,0,1-.49,1.91Q264,219.24,256.62,232a4,4,0,0,1-1.3,1.34q-7.35,4.53-14.76,9a3.93,3.93,0,0,1-1.9.52C233.79,242.86,228.91,242.84,224,242.84ZM136.85,203c4.84,0,9.68,0,14.52,0a3.6,3.6,0,0,0,1.78-.51c2.82-1.74,5.58-3.58,8.39-5.34,4.54-2.83,9.13-5.6,13.65-8.46a6.29,6.29,0,0,0,2.05-2.1q6.89-12.15,13.63-24.39a6.44,6.44,0,0,0,.76-2.95c.06-8.71,0-17.43,0-26.14a3.79,3.79,0,0,0-.47-1.8q-7.25-12.64-14.57-25.23a4,4,0,0,0-1.41-1.37c-2.12-1.2-4.3-2.28-6.43-3.47-4.89-2.72-9.73-5.52-14.65-8.19a7.8,7.8,0,0,0-3.5-.92q-13.74-.11-27.48,0a7,7,0,0,0-3.18.8c-7.13,3.87-14.21,7.81-21.28,11.78a4.15,4.15,0,0,0-1.48,1.47q-7.3,12.54-14.51,25.13a3.81,3.81,0,0,0-.48,1.8c0,3.24.07,6.48.06,9.71,0,5.48-.1,11,0,16.43a6.71,6.71,0,0,0,.8,3.05q6.68,12.13,13.51,24.17a6.55,6.55,0,0,0,2.09,2.22q11,7,22,13.8a3.59,3.59,0,0,0,1.78.5C127.25,203,132.05,203,136.85,203Zm0,71.68c4.76,0,9.52,0,14.28,0a1.68,1.68,0,0,0,1.71-.93q7.14-12.42,14.36-24.8a1.57,1.57,0,0,0,0-1.83q-7.22-12.37-14.37-24.79a1.58,1.58,0,0,0-1.59-.93q-14.28,0-28.56,0a1.58,1.58,0,0,0-1.59.92q-7.15,12.42-14.37,24.79a1.57,1.57,0,0,0,0,1.84q7.22,12.38,14.36,24.8a1.68,1.68,0,0,0,1.71.94C127.45,274.68,132.13,274.7,136.81,274.7ZM50,70.69c-4.72,0-9.44,0-14.15,0a1.84,1.84,0,0,0-1.89,1.05Q26.87,84,19.7,96.31a1.66,1.66,0,0,0,0,1.94q7.2,12.32,14.3,24.68a1.77,1.77,0,0,0,1.8,1q14.09,0,28.19,0a1.87,1.87,0,0,0,1.89-1.06q7.07-12.32,14.23-24.59a1.66,1.66,0,0,0,0-1.94Q72.91,84,65.81,71.67a1.77,1.77,0,0,0-1.8-1C59.33,70.71,54.65,70.69,50,70.69ZM223.9,123.93c4.76,0,9.52,0,14.27,0a1.69,1.69,0,0,0,1.69-1q7.11-12.36,14.3-24.69a1.66,1.66,0,0,0,0-1.94Q247,84,239.88,71.65a1.68,1.68,0,0,0-1.68-1q-14.21,0-28.43,0a1.68,1.68,0,0,0-1.7,1Q201,84,193.77,96.33a1.66,1.66,0,0,0,0,1.94q7.16,12.27,14.24,24.58a1.85,1.85,0,0,0,1.87,1.1C214.55,123.9,219.23,123.93,223.9,123.93Zm-87-50.26c4.76,0,9.52,0,14.28,0a1.58,1.58,0,0,0,1.61-.89q7.16-12.46,14.39-24.89a1.58,1.58,0,0,0,0-1.84q-7.19-12.32-14.31-24.69a1.68,1.68,0,0,0-1.68-1q-14.22,0-28.43,0a1.68,1.68,0,0,0-1.68,1q-7.12,12.36-14.31,24.69a1.58,1.58,0,0,0,0,1.84q7.23,12.42,14.39,24.89a1.58,1.58,0,0,0,1.61.88C127.44,73.65,132.16,73.67,136.87,73.67Zm-87,97.68c-4.76,0-9.52,0-14.28,0a1.59,1.59,0,0,0-1.63.88Q26.8,184.63,19.59,197a1.41,1.41,0,0,0,0,1.63q7.27,12.48,14.49,25a1.41,1.41,0,0,0,1.42.8q14.34,0,28.67,0a1.51,1.51,0,0,0,1.51-.86q7.19-12.52,14.45-25a1.39,1.39,0,0,0,0-1.62q-7.18-12.33-14.3-24.7a1.69,1.69,0,0,0-1.73-.93C59.37,171.36,54.61,171.35,49.85,171.35ZM224,224.42c4.72,0,9.44,0,14.16,0a1.68,1.68,0,0,0,1.71-.94q7.14-12.42,14.36-24.79a1.58,1.58,0,0,0,0-1.84q-7.18-12.33-14.3-24.69a1.59,1.59,0,0,0-1.59-.93q-14.34,0-28.67,0a1.51,1.51,0,0,0-1.52.85q-7.15,12.42-14.36,24.79a1.47,1.47,0,0,0,0,1.72q7.2,12.37,14.33,24.79a1.77,1.77,0,0,0,1.78,1C214.56,224.4,219.28,224.42,224,224.42ZM64.93,142.58H34.79V170.3H64.93Zm143.95,27.53H239V142.42h-30.1Zm-1.26,54.54-15.14-26.22-23.08,13,14.68,26.26Zm-39.2-177L153.28,73.9l23.54,13L191.5,60.67Zm-63,0-23.08,13L97,86.93l23.53-13ZM89.78,237.72l14.68-26.26-23.09-13L66.24,224.69ZM66,140.83a3.44,3.44,0,0,0,.53-.17q7.21-4.39,14.41-8.8a2.75,2.75,0,0,0,.86-1q7.36-12.7,14.67-25.43A2.92,2.92,0,0,0,96.8,104c-.12-4.79-.28-9.59-.43-14.38,0-.3-.06-.59-.1-1-.47.27-.81.45-1.14.65-4.21,2.6-8.44,5.19-12.63,7.83A4.58,4.58,0,0,0,81,98.59q-5.6,9.56-11.13,19.17c-1.3,2.25-3.08,4.37-3.73,6.79s-.2,5.23-.21,7.87S66,137.92,66,140.83Zm87,150.82c.37-.18.59-.25.78-.37q7-4.26,14-8.54a3,3,0,0,0,1-1q7.33-12.65,14.61-25.33a3,3,0,0,0,.4-1.46c-.09-4.56-.22-9.11-.34-13.67,0-.58-.08-1.16-.13-1.8a3.19,3.19,0,0,0-.48.17c-4.59,2.83-9.19,5.65-13.76,8.51a3,3,0,0,0-.92,1.06q-7.35,12.64-14.65,25.31a3.82,3.82,0,0,0-.47,1.8c0,4.48,0,9,0,13.43Zm-32.27,0c0-.41.06-.68.06-.95,0-4.84,0-9.67,0-14.51a3.59,3.59,0,0,0-.49-1.68q-7.25-12.63-14.56-25.22a4,4,0,0,0-1.3-1.34c-4.23-2.65-8.49-5.27-12.73-7.89-.32-.2-.67-.38-1.16-.65-.06,1.13-.13,2.07-.16,3-.11,4-.24,8.07-.28,12.11a4.38,4.38,0,0,0,.54,2.13q7.14,12.48,14.37,24.91a4,4,0,0,0,1.29,1.34c4.42,2.73,8.86,5.41,13.3,8.11C119.93,291.19,120.27,291.35,120.74,291.6Zm119.4-50.22c.26-.12.4-.17.53-.25,4.75-2.88,9.5-5.76,14.23-8.67a3.25,3.25,0,0,0,1-1.14q7.27-12.55,14.49-25.14a3.85,3.85,0,0,0,.48-1.91c-.11-4.72-.28-9.43-.43-14.15,0-.29-.08-.58-.13-.94-.26.12-.4.17-.53.26-4.52,2.79-9.05,5.57-13.56,8.4a3.57,3.57,0,0,0-1.08,1.23q-7.3,12.54-14.54,25.11a4.06,4.06,0,0,0-.51,1.91c0,4.68,0,9.36,0,14C240.08,240.49,240.11,240.87,240.14,241.38Zm-206.48,0a4.69,4.69,0,0,0,.08-.56c0-5,0-10.07,0-15.11a3.11,3.11,0,0,0-.46-1.44Q26,211.62,18.69,199a4,4,0,0,0-1.29-1.34c-4.3-2.7-8.62-5.36-12.94-8-.28-.17-.59-.31-1-.54-.16,5.38-.33,10.57-.46,15.76a2.54,2.54,0,0,0,.43,1.21Q10.66,218.71,18,231.31a4,4,0,0,0,1.3,1.33c4.45,2.75,8.93,5.45,13.41,8.17C33,241,33.28,241.14,33.66,241.35ZM3.58,88.62a3.35,3.35,0,0,0-.14.53c-.17,5-.34,10.06-.47,15.1a2.73,2.73,0,0,0,.42,1.33Q10.65,118.19,18,130.78A3.74,3.74,0,0,0,19.18,132c4.51,2.8,9.05,5.56,13.59,8.32.28.17.58.3,1,.5,0-5.18,0-10.17,0-15.16a4.57,4.57,0,0,0-.57-2.13c-3.4-6-6.85-11.91-10.29-17.86-1.54-2.66-2.67-5.72-4.75-7.86s-5.16-3.43-7.8-5.07C8.12,91.4,5.91,90.05,3.58,88.62Zm236.49,52.33c5.21-3.21,10.17-6.26,15.11-9.35a3.08,3.08,0,0,0,.89-1.09q7.18-12.4,14.32-24.82a3.85,3.85,0,0,0,.48-1.91c-.11-4.68-.27-9.35-.43-14,0-.33-.08-.65-.13-1.09-.48.27-.83.46-1.17.66-4.18,2.58-8.38,5.15-12.53,7.78a4.85,4.85,0,0,0-1.54,1.59c-3.94,6.72-7.66,13.58-11.81,20.18A18.83,18.83,0,0,0,240,131C240.3,134.2,240.07,137.45,240.07,140.94Zm-32.34-.15c0-.37.08-.6.08-.83,0-4.92,0-9.83,0-14.75a3.62,3.62,0,0,0-.55-1.66q-7.19-12.52-14.44-25a4.3,4.3,0,0,0-1.38-1.42c-4.23-2.66-8.48-5.27-12.73-7.89-.33-.2-.67-.37-1.11-.61,0,.32-.08.5-.09.69-.16,5-.32,9.91-.44,14.86a3,3,0,0,0,.45,1.44q7.14,12.41,14.33,24.8a4.56,4.56,0,0,0,1.45,1.51c4.43,2.78,8.89,5.51,13.34,8.26C207,140.38,207.3,140.55,207.73,140.79Zm47-80.24c-5.15-2.46-10.08-4.83-15-7.17a2.83,2.83,0,0,0-1.17-.15q-14.52,0-29,0a4.45,4.45,0,0,0-1.82.42c-4.3,2-8.57,4.08-12.86,6.14-.48.23-.95.48-1.54.77.5.32.86.56,1.23.78,4.29,2.56,8.56,5.14,12.88,7.66a4.93,4.93,0,0,0,2.34.66c8.12,0,16.24-.13,24.35.1a15.55,15.55,0,0,0,10-2.79c2.44-1.73,5.12-3.11,7.69-4.64Zm-235.58,0c.5.32.82.54,1.16.74,4.39,2.62,8.77,5.26,13.19,7.85a4.2,4.2,0,0,0,2,.56q14.39.05,28.79,0a4,4,0,0,0,1.9-.52c4.48-2.63,8.93-5.31,13.39-8,.3-.18.58-.39,1-.65-5-2.41-10-4.78-14.91-7.12a3.09,3.09,0,0,0-1.28-.19h-29a3.1,3.1,0,0,0-1.28.18C29.16,55.74,24.26,58.09,19.16,60.54Zm87.18,150.79c.28.21.45.37.64.49,4.63,2.77,9.25,5.54,13.9,8.27a3.26,3.26,0,0,0,1.58.37q14.45,0,28.9,0a4,4,0,0,0,1.9-.53c4.45-2.61,8.86-5.26,13.28-7.91.32-.19.63-.42,1.05-.71-4.85-2.33-9.52-4.59-14.21-6.8a5.61,5.61,0,0,0-2.29-.5c-7.47,0-15,.18-22.42-.09A23.9,23.9,0,0,0,115.2,207c-2.47,1.45-5.16,2.51-7.75,3.75C107.11,210.9,106.78,211.09,106.33,211.33Zm-.17-201c5.12,3.06,10,6,14.88,8.85a2.82,2.82,0,0,0,1.37.26q14.52,0,29,0a3.72,3.72,0,0,0,1.79-.5c4.52-2.65,9-5.35,13.5-8,.26-.15.49-.34.81-.55a4.49,4.49,0,0,0-.47-.32c-4.68-2.25-9.36-4.5-14.06-6.72a3.63,3.63,0,0,0-1.5-.28q-14.58,0-29.16,0a4.47,4.47,0,0,0-1.83.43c-3.91,1.83-7.79,3.72-11.68,5.58ZM18.41,96.62,33.62,70.36,18.26,61.19,3.59,87.44ZM255.59,61.19l-15.36,9.17,15.22,26.26,14.81-9.19ZM240.25,170.9l15.2,26.23,14.81-9.19L255.59,161.7ZM153.19,20.11l15.19,26.21,14.82-9.18-14.65-26.2Zm-32.53,0L105.3,10.94,90.65,37.15l14.82,9.17Zm71.71,41.1L177.7,87.45l14.79,9.17,15.22-26.26Zm-9.18,177L168.52,212l-15.33,9.15,15.22,26.26Zm-87-150.76L81.48,61.21,66.15,70.36,81.36,96.62ZM90.67,238.21l14.78,9.17,15.22-26.26L105.34,212ZM192.36,161.7,177.7,187.91l14.81,9.17,15.17-26.17Zm-174,35.43L33.54,171l-15.29-9.28L3.59,187.94Zm63.11-35.39L66.22,171l15.12,26.1,14.81-9.17Zm70.5-87H121.88V91H152ZM64.87,241.84V225.49h-30v16.35ZM209,225.49v16.33h30V225.49Zm-57,50.26H121.86V292H152ZM208.9,141.24H239V125H208.9ZM64.92,125H34.84v16.29H64.92Zm1,44.91c.38-.17.57-.24.73-.33,4.61-2.8,9.22-5.62,13.85-8.39a1.44,1.44,0,0,0,.68-1.5q0-12.78,0-25.56c0-.33-.05-.67-.09-1.13-.48.27-.82.45-1.15.66-4.32,2.67-8.62,5.36-13,8a1.92,1.92,0,0,0-1.06,1.91c0,8.32,0,16.64,0,25Zm174.16-.18c.5-.27.88-.47,1.24-.69,4.3-2.61,8.6-5.24,12.92-7.82a1.81,1.81,0,0,0,1-1.8c0-8.44,0-16.87,0-25.31,0-.38,0-.76-.07-1.28-.46.25-.81.43-1.14.63-4.32,2.67-8.62,5.36-13,8a1.91,1.91,0,0,0-1.07,1.89c0,8.36,0,16.71,0,25.07C240.07,168.79,240.11,169.17,240.13,169.72Zm-32.4,0c0-.41.08-.61.08-.81,0-8.68,0-17.35,0-26a1.83,1.83,0,0,0-.78-1.28c-4.46-2.82-8.95-5.59-13.43-8.36a7,7,0,0,0-.82-.37,1.85,1.85,0,0,0-.1.34c0,8.88,0,17.75,0,26.63a1.73,1.73,0,0,0,.79,1.15c2.53,1.6,5.1,3.14,7.66,4.7Zm-174,.24c0-9.21,0-18.17,0-27.12a1.61,1.61,0,0,0-.76-1c-4.5-2.83-9-5.62-13.54-8.42a6.53,6.53,0,0,0-.75-.34,2.71,2.71,0,0,0-.08.43c0,8.84,0,17.67,0,26.51a1.84,1.84,0,0,0,.83,1.24c2.77,1.75,5.58,3.43,8.38,5.14Zm119.85,33.4c.48.25.82.44,1.17.61,4.32,2.07,8.65,4.13,13,6.23a1.87,1.87,0,0,0,2-.07q10.42-5.91,20.87-11.77c.33-.18.63-.4,1-.66-.3-.22-.49-.36-.68-.49-4.35-2.69-8.71-5.36-13-8.08a1.37,1.37,0,0,0-1.71.08q-8.62,5.42-17.26,10.81Zm-33.44,0c-.23-.18-.37-.31-.53-.42q-11.07-6.93-22.14-13.86a1.2,1.2,0,0,0-1.5.07c-4.27,2.66-8.55,5.3-12.83,7.95-.29.18-.56.39-.88.61a4.65,4.65,0,0,0,.38.28q10.91,6.14,21.83,12.26a1.77,1.77,0,0,0,1.4,0c4.48-2.1,8.94-4.25,13.4-6.4C119.56,203.81,119.82,203.64,120.16,203.44ZM207.28,52.7c-.25-.2-.37-.31-.5-.4q-11.12-7-22.23-13.93a1.29,1.29,0,0,0-1.61.12l-12.73,7.88c-.28.17-.54.39-.91.67,7.56,4.26,15,8.43,22.38,12.58a1.24,1.24,0,0,0,1,.06C197.49,57.4,202.31,55.08,207.28,52.7ZM66.55,52.63c.48.25.79.43,1.11.58,4.32,2.07,8.65,4.12,13,6.23a2,2,0,0,0,2.09-.06c6.91-3.93,13.84-7.81,20.76-11.71.33-.19.65-.41,1.08-.68-.39-.28-.66-.49-1-.67-4.21-2.6-8.44-5.18-12.63-7.82a1.53,1.53,0,0,0-1.92,0c-3.23,2.06-6.49,4.07-9.75,6.11ZM153.18,75a5.73,5.73,0,0,0-.1.64c0,5-.07,9.92,0,14.87a1.76,1.76,0,0,0,.84,1.22q10.56,5.92,21.17,11.76c.28.16.59.27,1,.44.15-5.06.27-9.93.47-14.81a1.73,1.73,0,0,0-1.05-1.86c-7-3.86-14.06-7.76-21.09-11.66C154,75.42,153.67,75.25,153.18,75Zm-55.6,29c.6-.25.85-.34,1.09-.46q10.7-5.92,21.4-11.84a1.37,1.37,0,0,0,.79-1.42c0-4.68-.05-9.36-.08-14,0-.38,0-.76-.08-1.24-.31.13-.49.18-.66.27q-11,6.1-22,12.23a1.6,1.6,0,0,0-.65,1.2c0,2.6.15,5.2.19,7.79C97.61,99,97.58,101.38,97.58,104Zm87.28,150.69c.39-.17.57-.24.74-.33,7.19-4,14.39-8,21.56-12a1.75,1.75,0,0,0,.69-1.3c0-3.55,0-7.11,0-10.67,0-1.51,0-3,0-4.7-.56.28-.95.46-1.32.67-6.39,3.54-12.71,7.22-19.21,10.55-2.37,1.21-3.1,2.57-2.88,5.13C184.77,246.2,184.73,250.36,184.86,254.72ZM66.2,225.78a3,3,0,0,0-.12.5c0,5-.09,10.07-.06,15.1a1.8,1.8,0,0,0,.9,1.18q10.5,5.88,21,11.69c.29.16.6.27,1,.48.15-5.3.31-10.4.4-15.51,0-.33-.44-.8-.8-1-3.19-1.81-6.42-3.58-9.63-5.36Z"/><path class="cls-1" d="M136.85,203c-4.8,0-9.6,0-14.4,0a3.59,3.59,0,0,1-1.78-.5q-11-6.85-22-13.8a6.55,6.55,0,0,1-2.09-2.22q-6.83-12-13.51-24.17a6.71,6.71,0,0,1-.8-3.05c0-5.48,0-11,0-16.43,0-3.24-.08-6.48-.06-9.71a3.81,3.81,0,0,1,.48-1.8q7.22-12.59,14.51-25.13a4.15,4.15,0,0,1,1.48-1.47c7.07-4,14.16-7.91,21.28-11.78a7,7,0,0,1,3.18-.8q13.74-.09,27.48,0a7.8,7.8,0,0,1,3.5.92c4.92,2.66,9.76,5.46,14.65,8.19,2.13,1.19,4.31,2.27,6.43,3.47a4,4,0,0,1,1.41,1.37q7.33,12.59,14.57,25.23a3.79,3.79,0,0,1,.47,1.8c0,8.71,0,17.43,0,26.14a6.44,6.44,0,0,1-.76,2.95q-6.74,12.23-13.63,24.39a6.29,6.29,0,0,1-2.05,2.1c-4.52,2.87-9.11,5.63-13.65,8.46-2.81,1.75-5.57,3.59-8.39,5.34a3.6,3.6,0,0,1-1.78.51C146.53,203,141.69,203,136.85,203Z"/><path class="cls-1" d="M136.81,274.7c-4.68,0-9.36,0-14,0a1.68,1.68,0,0,1-1.71-.94q-7.14-12.42-14.36-24.8a1.57,1.57,0,0,1,0-1.84q7.22-12.38,14.37-24.79a1.58,1.58,0,0,1,1.59-.92q14.28,0,28.56,0a1.58,1.58,0,0,1,1.59.93q7.15,12.42,14.37,24.79a1.57,1.57,0,0,1,0,1.83q-7.22,12.38-14.36,24.8a1.68,1.68,0,0,1-1.71.93C146.33,274.68,141.57,274.7,136.81,274.7Z"/><path class="cls-1" d="M50,70.69c4.68,0,9.36,0,14,0a1.77,1.77,0,0,1,1.8,1Q72.91,84,80.11,96.36a1.66,1.66,0,0,1,0,1.94q-7.15,12.27-14.23,24.59a1.87,1.87,0,0,1-1.89,1.06q-14.09,0-28.19,0a1.77,1.77,0,0,1-1.8-1q-7.11-12.37-14.3-24.68a1.66,1.66,0,0,1,0-1.94Q26.85,84,33.93,71.72a1.84,1.84,0,0,1,1.89-1.05C40.54,70.71,45.26,70.69,50,70.69Z"/><path class="cls-1" d="M223.9,123.93c-4.68,0-9.36,0-14,0a1.85,1.85,0,0,1-1.87-1.1q-7.08-12.32-14.24-24.58a1.66,1.66,0,0,1,0-1.94Q201,84,208.07,71.64a1.68,1.68,0,0,1,1.7-1q14.21,0,28.43,0a1.68,1.68,0,0,1,1.68,1Q247,84,254.18,96.34a1.66,1.66,0,0,1,0,1.94Q247,110.6,239.87,123a1.69,1.69,0,0,1-1.69,1C233.42,123.91,228.66,123.93,223.9,123.93Z"/><path class="cls-1" d="M136.87,73.67c-4.72,0-9.44,0-14.16,0a1.58,1.58,0,0,1-1.61-.88q-7.16-12.46-14.39-24.89a1.58,1.58,0,0,1,0-1.84Q113.91,33.75,121,21.39a1.68,1.68,0,0,1,1.68-1q14.22,0,28.43,0a1.68,1.68,0,0,1,1.68,1q7.12,12.36,14.31,24.69a1.58,1.58,0,0,1,0,1.84q-7.23,12.42-14.39,24.89a1.58,1.58,0,0,1-1.61.89C146.39,73.65,141.63,73.67,136.87,73.67Z"/><path class="cls-1" d="M49.85,171.35c4.76,0,9.52,0,14.28,0a1.69,1.69,0,0,1,1.73.93Q73,184.63,80.15,197a1.39,1.39,0,0,1,0,1.62q-7.26,12.48-14.45,25a1.51,1.51,0,0,1-1.51.86q-14.34,0-28.67,0a1.41,1.41,0,0,1-1.42-.8q-7.21-12.52-14.49-25a1.41,1.41,0,0,1,0-1.63q7.21-12.38,14.36-24.79a1.59,1.59,0,0,1,1.63-.88C40.34,171.36,45.1,171.35,49.85,171.35Z"/><path class="cls-1" d="M224,224.42c-4.72,0-9.44,0-14.16,0a1.77,1.77,0,0,1-1.78-1q-7.12-12.42-14.33-24.79a1.47,1.47,0,0,1,0-1.72q7.21-12.38,14.36-24.79a1.51,1.51,0,0,1,1.52-.85q14.34,0,28.67,0a1.59,1.59,0,0,1,1.59.93q7.12,12.36,14.3,24.69a1.58,1.58,0,0,1,0,1.84Q247,211.08,239.86,223.5a1.68,1.68,0,0,1-1.71.94C233.43,224.4,228.71,224.42,224,224.42Z"/><path class="cls-1" d="M64.93,142.58V170.3H34.79V142.58Z"/><path class="cls-1" d="M208.88,170.11V142.42H239v27.69Z"/><path class="cls-1" d="M207.62,224.66l-23.54,13L169.4,211.43l23.08-13Z"/><path class="cls-1" d="M168.42,47.67l23.09,13L176.82,86.93l-23.54-13Z"/><path class="cls-1" d="M105.44,47.67l15.14,26.22L97,86.93,82.35,60.67Z"/><path class="cls-1" d="M89.78,237.72l-23.54-13,15.13-26.22,23.09,13Z"/><path class="cls-1" d="M66,140.83c0-2.91,0-5.66,0-8.41s-.45-5.4.21-7.87,2.43-4.55,3.73-6.79Q75.46,108.17,81,98.59A4.58,4.58,0,0,1,82.5,97.1c4.19-2.64,8.41-5.23,12.63-7.83.33-.2.68-.39,1.14-.65,0,.42.09.72.1,1,.15,4.79.31,9.58.43,14.38a2.92,2.92,0,0,1-.37,1.45q-7.31,12.73-14.67,25.43a2.75,2.75,0,0,1-.86,1q-7.19,4.43-14.41,8.8A3.44,3.44,0,0,1,66,140.83Z"/><path class="cls-1" d="M153,291.64v-1.91c0-4.48,0-9,0-13.43a3.82,3.82,0,0,1,.47-1.8q7.29-12.67,14.65-25.31a3,3,0,0,1,.92-1.06c4.58-2.86,9.17-5.68,13.76-8.51a3.19,3.19,0,0,1,.48-.17c0,.64.11,1.22.13,1.8.13,4.55.26,9.11.34,13.67a3,3,0,0,1-.4,1.46q-7.28,12.68-14.61,25.33a3,3,0,0,1-1,1q-7,4.3-14,8.54C153.6,291.39,153.38,291.47,153,291.64Z"/><path class="cls-1" d="M120.74,291.6c-.46-.24-.81-.41-1.14-.6-4.44-2.69-8.88-5.38-13.3-8.11a4,4,0,0,1-1.29-1.34q-7.23-12.43-14.37-24.91a4.38,4.38,0,0,1-.54-2.13c0-4,.17-8.07.28-12.11,0-1,.1-1.9.16-3,.5.28.84.45,1.16.65,4.25,2.62,8.51,5.23,12.73,7.89a4,4,0,0,1,1.3,1.34q7.32,12.59,14.56,25.22a3.59,3.59,0,0,1,.49,1.68c0,4.84,0,9.67,0,14.51C120.8,290.92,120.76,291.19,120.74,291.6Z"/><path class="cls-1" d="M240.14,241.38c0-.51-.06-.89-.06-1.27,0-4.68,0-9.36,0-14a4.06,4.06,0,0,1,.51-1.91q7.23-12.58,14.54-25.11a3.57,3.57,0,0,1,1.08-1.23c4.5-2.82,9-5.61,13.56-8.4.13-.08.28-.13.53-.26.05.36.12.65.13.94.16,4.72.33,9.43.43,14.15a3.85,3.85,0,0,1-.48,1.91q-7.21,12.59-14.49,25.14a3.25,3.25,0,0,1-1,1.14c-4.73,2.91-9.48,5.79-14.23,8.67C240.54,241.2,240.4,241.25,240.14,241.38Z"/><path class="cls-1" d="M33.66,241.35c-.38-.21-.69-.36-1-.54-4.47-2.71-9-5.42-13.41-8.17a4,4,0,0,1-1.3-1.33Q10.65,218.72,3.4,206.09A2.54,2.54,0,0,1,3,204.88c.13-5.19.3-10.38.46-15.76.45.23.75.37,1,.54,4.32,2.66,8.64,5.32,12.94,8A4,4,0,0,1,18.69,199Q26,211.61,33.26,224.24a3.11,3.11,0,0,1,.46,1.44c0,5,0,10.07,0,15.11A4.69,4.69,0,0,1,33.66,241.35Z"/><path class="cls-1" d="M3.58,88.62c2.33,1.44,4.54,2.79,6.73,4.15,2.64,1.65,5.69,2.9,7.8,5.07s3.21,5.2,4.75,7.86c3.44,5.95,6.89,11.89,10.29,17.86a4.57,4.57,0,0,1,.57,2.13c0,5,0,10,0,15.16-.4-.2-.71-.33-1-.5-4.53-2.76-9.07-5.52-13.59-8.32A3.74,3.74,0,0,1,18,130.78Q10.64,118.2,3.39,105.57A2.73,2.73,0,0,1,3,104.24c.13-5,.3-10.07.47-15.1A3.35,3.35,0,0,1,3.58,88.62Z"/><path class="cls-1" d="M240.07,140.94c0-3.49.23-6.74-.05-9.95a18.83,18.83,0,0,1,3.25-12.14c4.15-6.59,7.87-13.45,11.81-20.18a4.85,4.85,0,0,1,1.54-1.59c4.16-2.63,8.35-5.19,12.53-7.78.33-.21.68-.39,1.17-.66.06.44.12.76.13,1.09.16,4.68.33,9.35.43,14a3.85,3.85,0,0,1-.48,1.91q-7.12,12.43-14.32,24.82a3.08,3.08,0,0,1-.89,1.09C250.24,134.68,245.28,137.73,240.07,140.94Z"/><path class="cls-1" d="M207.73,140.79c-.43-.24-.77-.41-1.1-.61-4.45-2.74-8.92-5.47-13.34-8.26a4.56,4.56,0,0,1-1.45-1.51q-7.2-12.38-14.33-24.8a3,3,0,0,1-.45-1.44c.12-5,.28-9.91.44-14.86,0-.19,0-.37.09-.69.43.24.78.41,1.11.61,4.25,2.62,8.51,5.23,12.73,7.89a4.3,4.3,0,0,1,1.38,1.42q7.26,12.48,14.44,25a3.62,3.62,0,0,1,.55,1.66c0,4.92,0,9.83,0,14.75C207.81,140.19,207.77,140.42,207.73,140.79Z"/><path class="cls-1" d="M254.74,60.55l-3,1.79c-2.57,1.54-5.26,2.92-7.69,4.64a15.55,15.55,0,0,1-10,2.79c-8.11-.23-16.23-.05-24.35-.1a4.93,4.93,0,0,1-2.34-.66c-4.32-2.51-8.59-5.09-12.88-7.66-.37-.22-.74-.46-1.23-.78.59-.3,1.06-.54,1.54-.77,4.28-2.05,8.56-4.12,12.86-6.14a4.45,4.45,0,0,1,1.82-.42q14.52,0,29,0a2.83,2.83,0,0,1,1.17.15C244.66,55.72,249.59,58.09,254.74,60.55Z"/><path class="cls-1" d="M19.16,60.54c5.11-2.44,10-4.8,14.91-7.12a3.1,3.1,0,0,1,1.28-.18h29a3.09,3.09,0,0,1,1.28.19c4.94,2.34,9.87,4.7,14.91,7.12-.39.26-.67.47-1,.65-4.46,2.67-8.91,5.35-13.39,8a4,4,0,0,1-1.9.52q-14.39,0-28.79,0a4.2,4.2,0,0,1-2-.56c-4.41-2.58-8.8-5.22-13.19-7.85C20,61.07,19.65,60.85,19.16,60.54Z"/><path class="cls-1" d="M106.33,211.33c.44-.24.78-.43,1.12-.59,2.59-1.24,5.28-2.3,7.75-3.75a23.9,23.9,0,0,1,13.48-3.07c7.46.27,14.95.06,22.42.09a5.61,5.61,0,0,1,2.29.5c4.69,2.2,9.35,4.47,14.21,6.8-.43.29-.73.51-1.05.71-4.42,2.65-8.84,5.3-13.28,7.91a4,4,0,0,1-1.9.53q-14.45,0-28.9,0a3.26,3.26,0,0,1-1.58-.37c-4.65-2.73-9.27-5.51-13.9-8.27C106.78,211.69,106.61,211.54,106.33,211.33Z"/><path class="cls-1" d="M106.16,10.31,108.84,9c3.89-1.87,7.78-3.75,11.68-5.58A4.47,4.47,0,0,1,122.35,3q14.58,0,29.16,0a3.63,3.63,0,0,1,1.5.28c4.7,2.22,9.38,4.47,14.06,6.72a4.49,4.49,0,0,1,.47.32c-.32.22-.55.4-.81.55-4.5,2.69-9,5.38-13.5,8a3.72,3.72,0,0,1-1.79.5q-14.52,0-29,0a2.82,2.82,0,0,1-1.37-.26C116.15,16.28,111.28,13.37,106.16,10.31Z"/><path class="cls-2" d="M18.41,96.62,3.59,87.44,18.26,61.19l15.36,9.17Z"/><path class="cls-1" d="M255.59,61.19l14.67,26.24-14.81,9.19L240.24,70.36Z"/><path class="cls-1" d="M240.25,170.9l15.34-9.2,14.67,26.24-14.81,9.19Z"/><path class="cls-1" d="M153.19,20.11l15.36-9.17,14.65,26.2-14.82,9.18Z"/><path class="cls-1" d="M120.67,20.11,105.48,46.32,90.65,37.15,105.3,10.94Z"/><path class="cls-1" d="M192.38,61.21l15.33,9.15L192.49,96.62,177.7,87.45Z"/><path class="cls-1" d="M183.2,238.21l-14.79,9.17-15.22-26.26L168.52,212Z"/><path class="cls-1" d="M96.16,87.45,81.36,96.62,66.15,70.36l15.33-9.16Z"/><path class="cls-1" d="M90.67,238.21,105.34,212l15.33,9.15-15.22,26.26Z"/><path class="cls-1" d="M192.36,161.7l15.33,9.21-15.17,26.17-14.81-9.17Z"/><path class="cls-1" d="M18.41,197.13,3.59,187.94l14.65-26.21L33.54,171Z"/><path class="cls-1" d="M81.51,161.74l14.64,26.18-14.81,9.17L66.22,171Z"/><path class="cls-1" d="M152,74.73V91H121.88V74.73Z"/><path class="cls-1" d="M64.87,241.84h-30V225.49h30Z"/><path class="cls-1" d="M209,225.49h30v16.33H209Z"/><path class="cls-1" d="M152,275.76V292H121.86V275.76Z"/><path class="cls-1" d="M208.9,141.24V125H239v16.25Z"/><path class="cls-1" d="M64.92,125v16.29H34.84V125Z"/><path class="cls-1" d="M66,169.9v-1.4c0-8.32,0-16.64,0-25A1.92,1.92,0,0,1,67,141.64c4.34-2.63,8.65-5.32,13-8,.33-.21.68-.39,1.15-.66,0,.46.09.79.09,1.13q0,12.78,0,25.56a1.44,1.44,0,0,1-.68,1.5c-4.63,2.77-9.23,5.59-13.85,8.39C66.53,169.66,66.35,169.72,66,169.9Z"/><path class="cls-2" d="M240.13,169.72c0-.54-.06-.93-.06-1.31,0-8.36,0-16.71,0-25.07a1.91,1.91,0,0,1,1.07-1.89c4.34-2.63,8.64-5.32,13-8,.33-.2.68-.37,1.14-.63,0,.52.07.9.07,1.28,0,8.44,0,16.87,0,25.31a1.81,1.81,0,0,1-1,1.8c-4.32,2.58-8.62,5.21-12.92,7.82C241,169.25,240.63,169.44,240.13,169.72Z"/><path class="cls-1" d="M207.73,169.76l-6.6-4c-2.56-1.56-5.13-3.1-7.66-4.7a1.73,1.73,0,0,1-.79-1.15c0-8.88,0-17.75,0-26.63a1.85,1.85,0,0,1,.1-.34,7,7,0,0,1,.82.37c4.49,2.78,9,5.54,13.43,8.36a1.83,1.83,0,0,1,.78,1.28c0,8.68,0,17.35,0,26C207.81,169.15,207.77,169.34,207.73,169.76Z"/><path class="cls-1" d="M33.74,170l-5.92-3.61c-2.8-1.7-5.61-3.39-8.38-5.14a1.84,1.84,0,0,1-.83-1.24c0-8.84,0-17.67,0-26.51a2.71,2.71,0,0,1,.08-.43,6.53,6.53,0,0,1,.75.34c4.52,2.8,9,5.59,13.54,8.42a1.61,1.61,0,0,1,.76,1C33.75,151.83,33.74,160.79,33.74,170Z"/><path class="cls-1" d="M153.6,203.39l5.3-3.32q8.63-5.4,17.26-10.81a1.37,1.37,0,0,1,1.71-.08c4.33,2.72,8.69,5.39,13,8.08.2.12.38.27.68.49-.4.26-.7.47-1,.66q-10.44,5.88-20.87,11.77a1.87,1.87,0,0,1-2,.07c-4.3-2.1-8.63-4.16-13-6.23C154.42,203.83,154.08,203.64,153.6,203.39Z"/><path class="cls-1" d="M120.16,203.44c-.34.2-.6.38-.87.51-4.46,2.14-8.92,4.3-13.4,6.4a1.77,1.77,0,0,1-1.4,0q-10.94-6.09-21.83-12.26a4.65,4.65,0,0,1-.38-.28c.32-.22.59-.43.88-.61,4.28-2.65,8.56-5.29,12.83-7.95a1.2,1.2,0,0,1,1.5-.07q11.05,7,22.14,13.86C119.79,203.12,119.93,203.25,120.16,203.44Z"/><path class="cls-1" d="M207.28,52.7c-5,2.38-9.79,4.7-14.62,7a1.24,1.24,0,0,1-1-.06c-7.42-4.15-14.82-8.32-22.38-12.58.38-.28.63-.5.91-.67l12.73-7.88a1.29,1.29,0,0,1,1.61-.12q11.1,7,22.23,13.93C206.92,52.38,207,52.49,207.28,52.7Z"/><path class="cls-1" d="M66.55,52.63l12.75-8c3.25-2,6.52-4,9.75-6.11a1.53,1.53,0,0,1,1.92,0c4.19,2.64,8.41,5.22,12.63,7.82.29.18.56.4,1,.67-.43.27-.75.49-1.08.68-6.92,3.9-13.86,7.78-20.76,11.71a2,2,0,0,1-2.09.06c-4.3-2.1-8.63-4.15-13-6.23C67.33,53.06,67,52.89,66.55,52.63Z"/><path class="cls-1" d="M153.18,75c.49.25.84.42,1.19.61,7,3.89,14,7.8,21.09,11.66a1.73,1.73,0,0,1,1.05,1.86c-.2,4.87-.32,9.75-.47,14.81-.39-.17-.7-.29-1-.44q-10.59-5.86-21.17-11.76a1.76,1.76,0,0,1-.84-1.22c0-5,0-9.92,0-14.87A5.73,5.73,0,0,1,153.18,75Z"/><path class="cls-1" d="M97.58,104c0-2.65,0-5.08,0-7.5,0-2.6-.17-5.2-.19-7.79a1.6,1.6,0,0,1,.65-1.2q11-6.16,22-12.23c.17-.09.35-.15.66-.27,0,.48.08.86.08,1.24,0,4.68,0,9.36.08,14a1.37,1.37,0,0,1-.79,1.42q-10.72,5.89-21.4,11.84C98.44,103.69,98.18,103.77,97.58,104Z"/><path class="cls-1" d="M184.86,254.72c-.13-4.36-.09-8.52-.45-12.65-.22-2.56.51-3.92,2.88-5.13,6.5-3.33,12.82-7,19.21-10.55.37-.21.76-.38,1.32-.67,0,1.69,0,3.2,0,4.7,0,3.56.07,7.11,0,10.67a1.75,1.75,0,0,1-.69,1.3c-7.17,4-14.37,8-21.56,12C185.43,254.48,185.25,254.54,184.86,254.72Z"/><path class="cls-1" d="M66.2,225.78,79,232.86c3.21,1.78,6.43,3.55,9.63,5.36.35.2.8.67.8,1-.09,5.11-.25,10.21-.4,15.51-.45-.2-.76-.32-1-.48q-10.53-5.83-21-11.69a1.8,1.8,0,0,1-.9-1.18c0-5,0-10.07.06-15.1A3,3,0,0,1,66.2,225.78Z"/><path class="cls-3" d="M136.75,274.95c-4.7,0-9.39,0-14.09,0a1.68,1.68,0,0,1-1.72-1q-7.16-12.68-14.42-25.3a1.62,1.62,0,0,1,0-1.87q7.25-12.62,14.42-25.3a1.58,1.58,0,0,1,1.6-.94q14.33,0,28.66,0a1.58,1.58,0,0,1,1.6.95q7.18,12.67,14.42,25.29a1.62,1.62,0,0,1,0,1.87Q160,261.34,152.8,274a1.68,1.68,0,0,1-1.72,1C146.31,274.93,141.53,274.95,136.75,274.95Z"/></svg>